<?xml version="1.0" encoding="utf-8"?>
<!-- Generator: Adobe Illustrator 22.1.0, SVG Export Plug-In . SVG Version: 6.00 Build 0)  -->
<svg version="1.1" id="Layer_1" xmlns="http://www.w3.org/2000/svg" xmlns:xlink="http://www.w3.org/1999/xlink" x="0px" y="0px"
	 viewBox="0 0 169 196.2" style="enable-background:new 0 0 169 196.2;" xml:space="preserve">
<style type="text/css">
	.st0{fill:#E84224;}
	.st1{fill:#113B5E;}
	.st2{fill:#EBF1F1;}
	.st3{fill:#80CBE3;}
	.st4{fill:#CFB090;}
	.st5{fill:#0C0C16;}
	.st6{fill:#39607B;}
	.st7{fill:#ECF3F2;}
	.st8{fill:#B9C9CE;}
	.st9{fill:#D5BA9E;}
	.st10{fill:#B6885C;}
	.st11{fill:#EE4323;}
	.st12{fill:#323037;}
	.st13{fill:#CE3C27;}
	.st14{fill:#0F2B4D;}
	.st15{fill:#C8D9DD;}
	.st16{fill:#4B6271;}
	.st17{fill:#7BC6D8;}
	.st18{fill:#BA9F93;}
	.st19{fill:#47160D;}
	.st20{fill:#95CFDE;}
	.st21{fill:#452916;}
	.st22{fill:#634737;}
	.st23{fill:#72635D;}
	.st24{fill:#ACA6A2;}
	.st25{fill:#FFFFFF;}
	.st26{fill:#C4AC8E;}
	.st27{fill:#EDF3F3;}
	.st28{fill:#808080;}
	.st29{fill:#62554F;}
	.st30{fill:#9CBBCC;}
	.st31{opacity:0.3;}
	.st32{fill:#9D2433;}
	.st33{fill:#7094A9;}
	.st34{fill:#DFC2B4;}
	.st35{fill:#EA4224;}
	.st36{fill:#252E33;}
	.st37{fill:#B4865D;}
	.st38{fill:#67889C;}
	.st39{fill:#A9846F;}
	.st40{fill:#2C3136;}
	.st41{fill:#9C7763;}
	.st42{fill:none;}
	.st43{fill:#1C5291;}
	.st44{fill:#99B1BF;}
	.st45{fill:#708DA0;}
	.st46{fill:none;stroke:#FFFFFF;stroke-width:0.5;stroke-linecap:round;stroke-linejoin:round;}
</style>
<title>Pie Chart</title>
<desc>Created with Sketch.</desc>
<g id="Page-1">
	<g id="Homepage-Tile" transform="translate(-175.000000, -1483.000000)">
		<g id="Pie-Chart" transform="translate(175.000000, 1483.000000)">
			<path id="Path" class="st0" d="M31.4,76.2c3.3-20.4,18.2-37.1,38.1-42.8L61.1,4C56.2,5.4,51.5,7.2,47,9.4
				c-0.9,0.4-1.8,0.9-2.7,1.4C21.2,23.2,5.3,45.6,1.1,71.4L31.4,76.2z"/>
			<path id="Path_1_" class="st1" d="M109.9,4.8c-1.1-0.3-2.2-0.7-3.3-1c-1.2-0.3-2.5-0.6-3.7-0.9c-5.5-1.2-11.1-1.9-16.7-2
				c-1.2,0-2.3,0-3.5,0l-0.7,0c-7,0.2-14,1.3-20.7,3.2l8.5,29.4c25.9-7.4,53.4,5.5,64,30.3l28.2-12.1c-4.1-9.5-9.9-18.1-17.1-25.5
				c-0.4-0.4-0.9-0.9-1.3-1.3c-2.7-2.6-5.5-5.1-8.6-7.3c-2.7-2-5.5-3.8-8.4-5.5c-0.7-0.4-1.4-0.8-2.1-1.2c-0.7-0.4-1.5-0.8-2.2-1.2
				c-1.3-0.6-2.5-1.2-3.8-1.8c-2.6-1.1-5.3-2.2-8-3L109.9,4.8z"/>
			<path id="Path_2_" class="st2" d="M133.5,63.6c5.8,13.6,5.8,28.9-0.1,42.5c-5.9,13.5-17.2,24-31.1,29l10.3,28.8
				c0.8-0.3,1.7-0.6,2.5-0.9s1.6-0.7,2.4-1c2.8-1.2,5.5-2.5,8.1-4c1-0.6,2-1.2,3-1.8c1.3-0.8,2.6-1.6,3.8-2.5
				c0.6-0.4,1.1-0.8,1.7-1.2s1.1-0.8,1.7-1.3c1.7-1.3,3.2-2.6,4.8-4c0.6-0.6,1.3-1.2,1.9-1.8c1.4-1.3,2.7-2.6,3.9-4
				c0.7-0.8,1.5-1.7,2.2-2.5c1-1.2,2-2.5,3-3.8c0.4-0.5,0.8-1.1,1.2-1.6c0.8-1.1,1.5-2.2,2.3-3.4c0.4-0.6,0.7-1.1,1.1-1.7
				c1.1-1.7,2-3.5,3-5.3c0.6-1.2,1.2-2.4,1.8-3.6c0.6-1.2,1.1-2.5,1.6-3.7c0.5-1.2,1-2.5,1.4-3.8c0.9-2.5,1.6-5.1,2.3-7.7
				c0.3-1.3,0.6-2.6,0.9-4c0.1-0.7,0.2-1.3,0.4-2c0.2-1.3,0.4-2.7,0.6-4c0.2-2,0.4-4,0.5-6.1c0.1-1.4,0.1-2.7,0.1-4.1
				c0-1.4-0.1-2.7-0.1-4.1c-0.4-7-1.6-13.8-3.7-20.5c-0.9-2.7-1.9-5.4-3-8.1L133.5,63.6z"/>
			<path id="Path_3_" class="st3" d="M102.5,135c-8.5,3-17.6,3.9-26.5,2.4c-29.2-4.7-49.1-32.1-44.4-61.2L1.3,71.4
				c-0.8,5.2-1.2,10.5-1,15.8c0,0.9,0.1,1.8,0.1,2.6c0.2,2.6,0.4,5.2,0.8,7.8c0.5,3,1.1,6,1.9,8.9c0.6,2.2,1.2,4.3,2,6.4
				c2.4,6.7,5.6,13.1,9.6,18.9c2.1,3.1,4.5,6.1,7,8.9c0.4,0.4,0.8,0.9,1.2,1.3c2.9,3.1,6,5.9,9.3,8.5c1.3,1,2.5,1.9,3.8,2.8
				c2,1.4,4.1,2.7,6.2,3.9c0.8,0.5,1.6,0.9,2.4,1.3c1.2,0.6,2.4,1.2,3.6,1.8c1.2,0.6,2.5,1.1,3.7,1.6c0.7,0.3,1.5,0.6,2.3,0.9
				c1.1,0.4,2.3,0.8,3.4,1.2c2,0.7,4,1.2,6,1.8c1.2,0.3,2.5,0.6,3.7,0.8c0.7,0.1,1.4,0.3,2.1,0.4c0.7,0.1,1.4,0.2,2,0.3
				c1.3,0.2,2.7,0.4,4.1,0.5c0.7,0.1,1.4,0.1,2,0.2c1.4,0.1,2.7,0.2,4.1,0.2c1.5,0,3,0.1,4.5,0c2.4-0.1,4.9-0.2,7.3-0.5
				c0.4,0,0.8-0.1,1.2-0.1c6.2-0.8,12.2-2.2,18-4.3L102.5,135z"/>
		</g>
	</g>
</g>
<g id="Page-1_1_">
	<g id="Homepage-Tile_1_" transform="translate(-180.000000, -1593.000000)">
		<g id="People" transform="translate(180.000000, 1593.000000)">
			<path id="Shape" class="st4" d="M128.5,185.2c-0.1,1.1,0.9,1,0.8,3c-0.1,1.4-2,1.2-2,1.2l-5.7,0l-1.5-1.8
				c1.2-0.4,2.3-0.8,3.5-1.3c0.9-0.5,1.8-0.5,1.8-2.4c0.1-1.9-1.2-12.6-1.1-13.1c0.6-2.4,3.8-7.1,4.8-2.7
				C129.8,170.8,128.9,182.6,128.5,185.2z"/>
			<path id="Shape_1_" class="st5" d="M126.7,186.9c-1.1-0.2-1.7-1.5-1.7-1.5s-2.5,1.2-2.9,1.4s-1.9,0.9-2.2,0.9
				c-0.3,0-1.7,0.2-2.1,0.4c3.8,1.1,7.9,1.2,11.8,0.3c0-0.9-0.3-1.7-0.9-2.4C128.4,186.3,127.8,187.1,126.7,186.9z"/>
			<path id="Shape_2_" class="st6" d="M120.7,187.3l2.2-1c0.4,0.2,1.6,2.2,1.6,2.4l-2.7,0.1C121.8,188.3,121.2,187.6,120.7,187.3z"
				/>
			<path id="Shape_3_" class="st7" d="M117.8,188c-0.1,0.1-0.2,0.1-0.2,0.2c0,0-0.2,0.9,0,1.2c0.2,0.3,2.7,0.7,3.6,0.8
				c0.9,0,3-0.2,3.6-0.2c0.6,0,3.3,0.4,4.7,0.1c0.2,0,0.1-1.7,0.1-1.7c0,0,0-0.1,0-0.1C125.6,188.6,121.7,189.2,117.8,188z"/>
			<path id="Shape_4_" class="st8" d="M117.9,188c-0.1,0.1-0.2,0.1-0.3,0.3c0,0,4.3,0.8,5.7,0.7h0.1c1.3-0.1,6.1-0.4,6.3-0.4v-0.4
				c-0.1,0-5,0.3-6.3,0.4C122,188.7,118.1,188.1,117.9,188z"/>
			<path id="Shape_5_" class="st9" d="M133,119c0.1-0.6-0.4-0.9-0.7-1.4c-0.2-0.3-0.5-0.6-0.8-0.8c-0.5-0.5-0.3-2-0.2-2.7
				c-1.2-0.3-1.9-0.8-3.4-0.5c-0.5,0.4-1,0.9-1.3,1.4c-0.3,0.4-0.5,0.8-0.7,1.2c-1,2.5-2.1,5,0.4,6c1.5,0.6,4.3,0.4,5.6-0.4
				C131.6,121,132.9,119.9,133,119z"/>
			<path id="Shape_6_" class="st10" d="M132.2,113c-1.6-0.6-2.9-0.4-4.2,0.5c1.9-0.1,1.8,4.2,2.8,4c0.2-0.2,0.5-0.4,0.8-0.4
				s0.6,0.2,0.8,0.4c0.5,0.6-0.8,2.5-0.8,4.4c1.5-0.6,2.9-1.4,3.3-2.5c0.5-1.2,0.5-2.6,0-3.8C134.3,114.5,133.4,113.5,132.2,113z"/>
			<path id="Shape_7_" class="st9" d="M127.5,114c0,0-2.6,2.8-2.7,3c-0.1,0.3,1.2,1,1.2,1L127.5,114z"/>
			<path id="Shape_8_" class="st10" d="M130.1,112.7c-1.8-0.6-2.6,1.2-2.8,2.7l2.4,1L130.1,112.7z"/>
			<path id="Shape_9_" class="st11" d="M123.6,148.4c0,0.4,10.3,0.3,8.7-5.9c-0.9-3.4,3-8.2,1-15.4c-0.4-1.3-2.4-2.6-3.7-2.2
				c-3,0.8-6.7,3.8-7.6,5.3c-1.4,2.4-0.5,8-0.6,11.3C121.4,141.6,123.6,148,123.6,148.4z"/>
			<path id="Shape_10_" class="st9" d="M117.5,136.8c0,0-3.4,2-3.6,2.1c-0.2,0-3.6-1.5-3.5-1.9c0.1-0.4,1.3-0.1,1.3-0.1l1.9,0.4
				C113.5,137.3,116.2,134.7,117.5,136.8z"/>
			<path id="Shape_11_" class="st5" d="M121.4,180.1c-0.2,0.9,10.5,2,10.4,1.2c-0.3-3.7-0.7-18.5,1.1-29.6c1-6.3-0.4-9.2-0.4-9.2
				l-11.3,0C121,148.7,122.6,173,121.4,180.1z"/>
			<polygon id="Shape_12_" class="st12" points="132.7,143.1 121.2,143.1 121.2,141.5 132.3,141.5 			"/>
			<path id="Shape_13_" class="st10" d="M131.3,120.4c-0.5,0.6-0.1,2.1,0.5,2.3c0.5,0.1,1.4-1.2,1.2-2c-0.1-0.3-0.4-0.6-0.7-0.7
				C131.9,120,131.5,120.1,131.3,120.4z"/>
			<path id="Shape_14_" class="st10" d="M131.2,121.7c-0.7,0.2-1,1.6-0.6,2s1.7-0.2,1.9-0.9c0.1-0.3-0.1-0.7-0.3-0.9
				S131.6,121.6,131.2,121.7z"/>
			<path id="Shape_15_" class="st10" d="M130.3,122.6c-0.7,0.1-1.2,1.4-0.9,1.9s1.7,0.1,2-0.6c0.1-0.3,0-0.7-0.2-0.9
				S130.7,122.6,130.3,122.6z"/>
			<path id="Shape_16_" class="st10" d="M129.1,123.6c-0.7,0.1-1.1,1.3-0.8,1.7c0.3,0.4,1.6,0.1,1.8-0.5c0.1-0.3,0-0.6-0.2-0.9
				C129.7,123.6,129.4,123.5,129.1,123.6z"/>
			<path id="Shape_17_" class="st10" d="M127.8,124.4c-0.6,0.1-1,1.1-0.7,1.5c0.2,0.3,1.4,0.1,1.5-0.5c0.1-0.2,0-0.5-0.1-0.7
				C128.3,124.5,128,124.4,127.8,124.4z"/>
			<path id="Shape_18_" class="st10" d="M126.6,125.3c-0.5,0.1-0.8,1-0.6,1.3c0.2,0.3,1.2,0,1.3-0.4c0.1-0.2,0-0.4-0.1-0.6
				C127.1,125.4,126.8,125.3,126.6,125.3z"/>
			<path id="Shape_19_" class="st10" d="M126.4,126.4c-0.4-0.5-0.9-0.3-1.3,0.1c-0.4,0.5-0.7,1-0.9,1.7
				C125.7,126.9,126.8,127,126.4,126.4z"/>
			<path id="Shape_20_" class="st9" d="M128.7,116.5c-0.4-0.6-0.3-1.9,0.2-2.7c-0.3,1.1,0.2,2.8,0.2,2.8L128.7,116.5z"/>
			<path id="Shape_21_" class="st9" d="M116.1,137.6c0,0,10.7,4.6,12.9,3.5c1.3-0.7,3.5-11.1,3.5-11.1l-5.1-0.4c0,0-0.6,7.1-0.3,8.2
				l-10.3-1.7L116.1,137.6z"/>
			<path id="Shape_22_" class="st13" d="M126.8,136l4,0.9c1.4-2.4,1.6-4.1,1.7-6.5c0.2-4.2-4.1-4.9-4.8-2.3
				C127,130.6,126.8,136,126.8,136z"/>
			<path id="Shape_23_" class="st13" d="M126.8,136c-0.1,0.6-0.2,1.1-0.4,1.7c0.4,0.4,0.8,0.1,1.3,0.4c0.5,0.3,0.6,0.9,1,1.1
				c0.5,0.2,0.8,0.1,1.3,0.2s0.5,0.9,1,0.7c0.5-0.1-0.2-3.1-0.2-3.1L126.8,136z"/>
			<path id="Shape_24_" class="st7" d="M90.3,188.7c0,0,0.1-0.9,0.8-1.2c0.6-0.2,2.6-0.4,3.2-0.6c0.6-0.2,3.8-2.4,4-3
				c0.1-0.7,0.2-2.6,0.6-2.7c0.4-0.1,1.4,0.5,1.5,0.7c0.1,0.1,2.7,1,3.4,0.7c0.2-0.1,0.1,0.2,0.1,0.2s1,4,0.9,5.2
				c0,0.5-0.1,1.1-0.2,1.6C104.5,189.5,90.6,189.9,90.3,188.7z"/>
			<path id="Shape_25_" class="st5" d="M100.3,181.8c1.1,0.5,2.3,0.7,3.5,0.6c0,0,0.3,0.2,0.1,0.3c0.1,0.5,0.2,1,0.3,1.5l-4.3-1.5
				L100.3,181.8z"/>
			<path id="Shape_26_" class="st14" d="M95.4,186.2c0,0,3.1-1.7,3.3-2c0.1-0.3,0.1-1.2,0.5-1.9c0.2-0.4,0.7-0.6,1.1-0.4
				c0,0-0.5,3-0.8,3.3c-0.3,0.3-3.8,2.3-4,2.2C95.2,187.3,95.4,186.2,95.4,186.2z"/>
			<path id="Shape_27_" class="st11" d="M99.2,182.3c-0.1,0.1-0.5,1.2-0.4,1.4c0.1,0.1,2.4,1.7,2.6,2c0.4,0.5,2.9-0.6,2.9-0.6
				s-0.1-0.9-0.2-0.9C103.3,184.1,99.3,182.1,99.2,182.3z"/>
			<path id="Shape_28_" class="st14" d="M104.4,185.8c0,0-2.2,0.6-2.5,1c-0.3,0.3-1.1,2.5-1.1,2.5l3.7-0.3
				C104.6,189,105,188.3,104.4,185.8z"/>
			<path id="Shape_29_" class="st14" d="M91.1,187.6c1,0.4,1.9,0,2.3,0.2c0.4,0.2,0.6,0.6,0.8,0.4c0.2-0.1,0.4-0.4,0.2-0.7
				c-0.2-0.2-0.6-0.4-0.3-0.7c0.3-0.2,2-1.2,2.1-1c0.1,0.2-0.2,2.1,1.1,3.1c1.3,1.1-4.7,0.3-4.7,0.3l-2.3-0.9
				C90.3,188.4,90.7,187.6,91.1,187.6z"/>
			<path id="Shape_30_" class="st15" d="M90,189.2c0,0.8,6,1.2,8.9,1.1s5.8-0.1,5.8-0.1v-1.4c0,0-8.3,0.5-9.8,0.4
				c-1.6-0.1-4.6-0.5-4.6-0.7C90.3,188.3,90,188.8,90,189.2z"/>
			<path id="Shape_31_" class="st5" d="M94.5,186.6c0,0.1-0.1,0.3-0.2,0.4c-0.1,0.2,0.2,0.4,0.3,0.2c0.1-0.2,0.1-0.3,0.2-0.5
				c0-0.1,0-0.2-0.1-0.2C94.6,186.5,94.5,186.5,94.5,186.6L94.5,186.6z"/>
			<path id="Shape_32_" class="st5" d="M95.1,186.3l0.1,0.6c0,0.2,0.4,0.2,0.4,0l-0.1-0.6C95.4,186.1,95,186.1,95.1,186.3z"/>
			<path id="Shape_33_" class="st5" d="M95.6,186c0,0.2,0,0.4,0,0.5c0,0.2,0.4,0.2,0.4,0c0-0.2,0-0.4,0-0.5
				C96,185.8,95.7,185.8,95.6,186z"/>
			<path id="Shape_34_" class="st5" d="M96.3,185.6l0,0.8c0,0.2,0.4,0.2,0.4,0l0-0.8C96.6,185.3,96.3,185.3,96.3,185.6z"/>
			<path id="Shape_35_" class="st5" d="M96.9,185.2c0.1,0.2,0.1,0.4,0.2,0.6c0.1,0.2,0.4,0.1,0.4-0.1c-0.1-0.2-0.2-0.4-0.2-0.6
				c0-0.1-0.1-0.1-0.1-0.1s-0.1,0-0.2,0S96.8,185.1,96.9,185.2L96.9,185.2z"/>
			<path id="Shape_36_" class="st5" d="M97.5,184.6c0,0.2,0,0.5,0,0.7c0,0.2,0.4,0.1,0.4-0.1c0-0.2-0.1-0.4,0-0.6
				C97.9,184.3,97.5,184.3,97.5,184.6L97.5,184.6z"/>
			<path id="Shape_37_" class="st5" d="M98.1,184.2c0.3,0.3,0.6,0.6,0.9,0.9c0.1,0.2,0.4-0.1,0.3-0.3c-0.3-0.3-0.6-0.6-0.9-0.9
				C98.2,183.8,97.9,184,98.1,184.2z"/>
			<path id="Shape_38_" class="st5" d="M98.4,183.9c0.3-0.1,0.5-0.3,0.8-0.4c0.2-0.1,0.1-0.4-0.1-0.4c-0.3,0.1-0.6,0.3-0.9,0.4
				C98,183.7,98.2,184,98.4,183.9L98.4,183.9z"/>
			<path id="Shape_39_" class="st16" d="M97.2,184.5c0,0.8,7.7,3.2,7.7,2.4c0-0.5-1.5-23.6,1.5-33.4c1.8-5.8,0.3-5.7,0.3-5.7l-7-3.1
				l-5.5,3.2c0,0,1.8,15,2.1,20.4c0.2,4.2,0.7,9.5,1,12.9c0,0.2,0.3,0.5,0.3,0.7c0,0.4-0.3,0.7-0.3,1s0.3,0.6,0.3,0.8
				C97.5,184.2,97,184.1,97.2,184.5z"/>
			<path id="Shape_40_" class="st17" d="M93.4,148.9c1.3,0.8,9,0.8,14.1,0.5c0.4,0-1.2-6.8-0.3-11.5c1.3-6.7,0.2-15.1-1.8-16.7
				c-3.5-2.7-9.8,1.5-11.2,7.2c-0.6,2.4-0.6,7.9-0.7,12.4C93.4,145.7,92.9,148.6,93.4,148.9z"/>
			<path id="Shape_41_" class="st18" d="M105.4,113.8c0.1-0.6-0.4-1-0.7-1.5c-0.2-0.3-0.5-0.6-0.8-0.9c-0.5-0.5-0.3-2.1-0.1-2.8
				c-1.2-0.4-2-0.8-3.5-0.6c-0.5,0.4-1,0.9-1.4,1.4c-0.3,0.4-0.5,0.8-0.7,1.2c-1.1,2.6-2.2,5.1,0.3,6.2c1.5,0.6,4.4,0.4,5.8-0.3
				C103.8,115.8,105.2,114.7,105.4,113.8z"/>
			<path id="Shape_42_" class="st19" d="M104.5,107.6c-1.1-0.5-1.7-0.4-2.7-0.3c-1,0.1-1.8-0.9-1.6,0.8c2,0,1.8,4.4,2.8,4.1
				c0.2-0.2,0.5-0.4,0.9-0.4s0.6,0.2,0.8,0.5c0.5,0.6-0.8,2.6-0.9,4.5c1.6-0.6,3-1.4,3.4-2.5C108.3,111.7,107.1,108.7,104.5,107.6z"
				/>
			<path id="Shape_43_" class="st18" d="M99.7,108.6c0,0-2.7,2.8-2.8,3.1s1.2,1,1.2,1L99.7,108.6z"/>
			<path id="Shape_44_" class="st18" d="M91.1,134l4.1-1.2c0,0,2.8,2.1,2.8,2.3s-1,0.4-1.4,0.3s-1.4-0.9-1.4-0.9S92,136.5,91.1,134z
				"/>
			<path id="Shape_45_" class="st18" d="M92.2,132l1.1,4c2.8,0.7,7.9-6.4,9.3-8.5c2.4-3.6-1-6.5-3-4.6C97.5,124.6,92.2,132,92.2,132
				z"/>
			<path id="Shape_46_" class="st20" d="M99.2,122.6c-0.8,0.4-3.5,4.2-3.7,5c0.4,2,2.3,3.3,4,4c1-1.3,2.6-3.6,3-4.2
				C104.9,123.7,101.9,121.1,99.2,122.6z"/>
			<path id="Shape_47_" class="st18" d="M93.8,130.8l-1.1-0.4c-1.3,0.2-2.7,2.5-1.7,4.1c3.3,1.8,2.7,1.8,3.3,1.2
				C95.3,134.5,93.8,130.8,93.8,130.8z"/>
			<path id="Shape_48_" class="st18" d="M91.8,133.8c-0.2,0.7-0.6,2.1,0.8,2.7c1.4,0.6,2-1.9,2-1.9L91.8,133.8z"/>
			<path id="Shape_49_" class="st21" d="M156.9,186.6c0,0-3.1-2.1-3.3-2.1c-0.2,0-0.5,1.2-0.4,1.7c0.2,0.5,3.2,0.9,3.2,0.9
				L156.9,186.6z"/>
			<path id="Shape_50_" class="st21" d="M161.8,187.4c0.8,0.1,1.1,0.6,1.1,0.9c0,0.3-3.4,1.5-4.6,1.5s-9.9-0.3-10.1-0.4
				c-0.3-0.1-0.2-0.8-0.2-1.1c0.1-0.9,0.3-1.8,0.5-2.6c0.1-0.1,1.7,0.6,3,0.6c1.3,0,2.1-0.7,2.5-0.9c0.4-0.2,0.5-0.3,0.8-0.2
				c0.3,0.1,2.6,1.1,3.5,1.5C159.7,187.4,161,187.3,161.8,187.4z"/>
			<path id="Shape_51_" class="st22" d="M154.7,185.1c0.1,0,2.9,1.9,3,2.4s-2.2,0.4-3,0.9c-0.5,0.4-1,0.8-1.3,1.3l-2.5-0.1
				c0,0,0-1-0.4-1.4c-0.3-0.4-1.5-0.6-1.7-1.2c-0.1-0.6-0.1-1,0.1-1.1c0.1-0.1,1.5,0.5,2.7,0.4C153.2,186.2,154.1,185,154.7,185.1z"
				/>
			<path id="Shape_52_" class="st23" d="M156.2,185.9c0,0,0,0.1,0,0.1c0,0.1,0,0.1,0,0.2c0,0.1-0.1,0.3-0.1,0.4
				c-0.1,0.1,0,0.2,0.1,0.1c0.1-0.2,0.2-0.4,0.2-0.6c0-0.1,0-0.4-0.1-0.4C156.1,185.7,156.1,185.9,156.2,185.9L156.2,185.9z"/>
			<path id="Shape_53_" class="st23" d="M155.6,185.7c0.1,0,0.1,0.2,0.1,0.3c0,0.1-0.1,0.2-0.1,0.3c-0.1,0.1,0.1,0.2,0.2,0.1
				c0.2-0.2,0.3-0.8-0.1-0.9C155.6,185.5,155.5,185.7,155.6,185.7z"/>
			<path id="Shape_54_" class="st23" d="M155.2,185.4c0.2,0-0.1,0.5-0.1,0.5c-0.1,0.1,0.1,0.2,0.1,0.1c0.1-0.2,0.4-0.8,0-0.8
				C155.1,185.2,155.1,185.4,155.2,185.4L155.2,185.4z"/>
			<path id="Shape_55_" class="st23" d="M154.5,185c0.2,0,0,0.4-0.1,0.5c0,0,0,0.1,0,0.1c0,0,0.1,0,0.1,0c0.1-0.2,0.3-0.6-0.1-0.7
				C154.5,184.9,154.5,184.9,154.5,185C154.5,185,154.5,185,154.5,185L154.5,185z"/>
			<path id="Shape_56_" class="st24" d="M157,189.8c0,0-8.7-0.3-9-0.4c-0.1,0-0.1,0.5-0.1,0.5S156,190.1,157,189.8z"/>
			<path id="Shape_57_" class="st7" d="M162.9,188.3c0,0.1,0.1,0.3,0.1,0.4c-1,0.5-2.1,0.9-3.2,1.2c-1.8,0.3-6.6,0.3-7.5,0.4
				c-0.8,0-4.3-0.1-4.3-0.1c0-0.1,0-0.3,0-0.4c0,0,2.9,0.1,5.7,0.1c2.7,0,5.4-0.2,5.8-0.3C160.4,189.5,162.6,188.6,162.9,188.3z"/>
			<path id="Shape_58_" d="M155.6,184.9c0,0.8-7.7,3.2-7.7,2.4c0-0.5,1.5-23.6-1.5-33.4c-1.8-5.8-0.3-5.7-0.3-5.7l7.1-3.1l5.5,3.2
				c0,0-1.8,15-2.1,20.4c-0.2,4.2-0.7,9.5-1,12.9c0,0.2-0.3,0.5-0.3,0.7c0,0.4,0.3,0.7,0.3,1c0,0.3-0.3,0.6-0.3,0.8
				C155.2,184.6,155.8,184.4,155.6,184.9"/>
			<path id="Shape_59_" class="st25" d="M159.3,149.2c-1.3,0.8-9,0.8-14.1,0.5c-0.4,0,1.2-6.8,0.3-11.5c-1.3-6.7-0.2-15.1,1.8-16.7
				c3.5-2.7,9.8,1.5,11.2,7.2c0.6,2.4,0.6,7.9,0.7,12.4C159.4,145.9,159.8,148.9,159.3,149.2"/>
			<path id="Shape_60_" class="st26" d="M155.5,146.3l4.3,1.5c0,0,1.1,3.5,1,3.7s-1.1-0.3-1.4-0.6c-0.3-0.3-0.6-1.7-0.6-1.7
				S154.7,148.9,155.5,146.3"/>
			<path id="Shape_61_" class="st26" d="M151.6,139.4c1.9-1.5,2.3-11.9,2.3-11.9l-6.4,3.7l-0.8,8.4c-0.1,1.5,9.8,8.8,9.8,8.8
				l0.8-1.6C157.2,146.8,152,139.6,151.6,139.4z"/>
			<path id="Shape_62_" class="st27" d="M154,124.8c0.7,2-0.1,8.9-0.6,9.7c-1.2,0.3-4.7-0.2-6.4-0.8c0.1-1.6,0.8-6.8,1-7.5
				C148.7,121.8,153.3,122.8,154,124.8z"/>
			<path id="Shape_63_" class="st26" d="M147.3,114.8c-0.1-0.6,0.4-1,0.6-1.5c0.2-0.3,0.5-0.6,0.8-0.9c0.5-0.6,0.2-2.1,0-2.8
				c1.2-0.4,1.9-1,3.5-0.8c0.6,0.4,1,0.8,1.5,1.4c0.3,0.4,0.6,0.8,0.8,1.2c1.2,2.5,2.5,5,0,6.2c-1.5,0.7-4.4,0.7-5.8,0
				C149,116.7,147.5,115.7,147.3,114.8"/>
			<path id="Shape_64_" class="st28" d="M147.8,108.6c1.1-0.5,1.7-0.5,2.7-0.5s1.8-1.1,1.6,0.7c-2,0.1-1.6,4.5-2.5,4.3
				c-0.2-0.2-0.6-0.4-0.9-0.3s-0.6,0.2-0.8,0.5c-0.5,0.7,1,2.6,1.1,4.4c-1.6-0.5-3.1-1.3-3.6-2.3
				C144.3,112.8,145.3,109.8,147.8,108.6"/>
			<path id="Shape_65_" class="st26" d="M152.7,109.2c0,0,2.8,2.7,3,2.9s-1.1,1.1-1.1,1.1L152.7,109.2z"/>
			<path id="Shape_66_" class="st28" d="M149.5,112.9c0.2,0.4,1.8,3.4,2.4,3.9c0.6,0.5,1.4,1,2,0.9c0.7-0.1,2.4-0.6,2.3-1.7
				c-0.2-0.8-0.4-1.5-0.6-2.2c0-0.2,0-0.3-0.1-0.4c-0.1-0.3-0.3-0.5-0.4-0.5c-0.4,0.5-0.7,1-0.8,1.6c-0.2,0.7-2.2,0.5-2.7,0.1
				s-1.4-1.4-1.5-2.2C150,111.7,149.5,112.9,149.5,112.9z"/>
			
				<rect id="Rectangle-path" x="150.3" y="117.7" transform="matrix(0.2231 -0.9748 0.9748 0.2231 -0.1474 241.2275)" class="st27" width="1.9" height="6.1"/>
			<path id="Shape_67_" class="st10" d="M69.2,183.2c0.1,1.1-0.9,1-0.8,3c0.1,1.4,2,1.2,2,1.2l4.4,2l2.8-1.6c0,0-3.4-2.7-4-3.3
				c-0.7-0.7-1.1-0.6-1.1-2.5c0-1.9,1.4-14.9,1.2-15.5c-0.6-2.4-4.9-4.9-5.9-0.5C67.1,168.6,68.9,180.5,69.2,183.2z"/>
			<path id="Shape_68_" class="st29" d="M68.3,187l0.8,3.3l2.5,0l0-1.8c0,0,2.3,0.4,3.3,1.7c0.3,0.4,4.8-0.6,4.8-0.8v-0.6
				c0,0-3.7,1-4.2,0.8c-0.5-0.2-2.2-1.3-3.4-1.8S69,187,68.3,187z"/>
			<path id="Shape_69_" class="st14" d="M74.4,189.1c0.4-0.5,0.9-1,1.5-1.2c0.6-0.2,1.1-0.3,1.7-0.4c0.4-0.1,1.7-0.2,1.9,0.2
				c0.2,0.4,0.3,1.2,0.1,1.3s-3.8,0.8-4.1,0.7C75.1,189.5,74.8,189.3,74.4,189.1z"/>
			<path id="Shape_70_" class="st14" d="M68.9,184.2c0,0,1.4,1.2,1.5,1.7c0.1,0.5,0.1,1-0.1,1.5c0.6,0.2,1.1,0.4,1.7,0.5
				c0,0-0.5-1.7-0.5-1.9c0.1-0.2,1.8-1.8,2-1.6c0.2,0.2-0.4-0.5-0.6-0.5s-1.8,0.9-2,1.1c-0.1,0.2-1.8-1.5-2-1.5
				S68.9,184.2,68.9,184.2z"/>
			<path id="Shape_71_" class="st14" d="M73.5,184.3c0,0,3,2.7,4.4,3.1c1.3,0.4-1.3,0.9-1.3,0.3c0-0.6-3-3-3.3-3.1
				C72.9,184.6,73.5,184.3,73.5,184.3z"/>
			<path id="Shape_72_" class="st10" d="M64.4,116.9c-0.1-0.6,0.3-1,0.6-1.5c0.2-0.3,0.5-0.6,0.8-0.9c0.5-0.6,0.2-2.1-0.1-2.7
				c1.1-0.4,1.9-0.9,3.4-0.8c0.5,0.4,1,0.8,1.4,1.3c0.3,0.3,0.6,0.7,0.8,1.1c1.2,2.4,2.5,4.8,0.1,6c-1.4,0.7-4.3,0.7-5.6,0.1
				C66,118.8,64.6,117.8,64.4,116.9z"/>
			<path id="Shape_73_" class="st21" d="M64.8,110.9c1.5-0.8,2.8-0.6,4.2,0.2c-1.9,0.1-1.5,4.4-2.4,4.2c-0.2-0.2-0.5-0.3-0.9-0.3
				c-0.3,0-0.6,0.2-0.8,0.5c-0.5,0.6,1,2.5,1.1,4.3c-1.6-0.5-3-1.2-3.5-2.2c-0.6-1.2-0.7-2.5-0.3-3.8
				C62.8,112.5,63.7,111.5,64.8,110.9z"/>
			<path id="Shape_74_" class="st10" d="M69.6,111.5c0,0,2.8,2.6,2.9,2.8s-1.1,1.1-1.1,1.1L69.6,111.5z"/>
			<path id="Shape_75_" class="st21" d="M64.2,111.2c-0.1,0.1-0.2,0.2-0.3,0.3c-0.2,0.3-0.6,0.4-0.8,0.6c-0.2,0.3-0.2,0.7-0.4,1
				c-0.2,0.3-0.5,0.6-0.6,1c-0.2,0.4,0.1,1,0.1,1.2c0.1,0.5,0,1,0.2,1.4c0.1,0.4,0.4,0.6,0.5,1c0.1,0.3,0.1,0.8,0.3,1.2
				c0.1,0.2,0.4,0.4,0.5,0.6s0.3,0.9,0.4,1c0.2,0.1,0.3,0.2,0.5,0.2c0.3,0.1,0.1,0.6,0.5,0.7c0.4,0.1,0.8-0.2,1.2,0
				c0.3,0.1,0.6,0.2,0.9,0.3c0.2,0,0.4,0,0.5-0.1l1.7-0.6l-0.6-1.1c-0.1-0.2-0.3-0.4-0.4-0.6c-0.2-0.2-0.5-0.3-0.7-0.5
				s-0.2-0.6-0.3-0.8c-0.3-0.4-0.6-0.1-0.9-0.7c-0.3-0.4-0.8-0.3-1-0.6c-0.1-0.3-0.3-0.5-0.4-0.8c-0.3-0.7,0.3-1.8,0.2-2.5
				c-0.1-0.4-0.4-0.8-0.3-1.1s0.6-0.5,0.6-0.9c0-0.2,0-0.5,0-0.7c-0.1-0.2-0.2,0-0.5,0C64.6,110.8,64.4,111,64.2,111.2z"/>
			<path id="Shape_76_" class="st21" d="M65.8,113.2c-0.2,0.3-0.2,0.7,0,1.1c0.2,0.4,0.5,0.6,0.4,1c0,0.2-0.2,0.4-0.1,0.7
				c0.1,0.4,0.5,0.3,0.5,0.6c0.1,0.3,0.2,0.5,0.5,0.6c-0.1-0.2,0-0.2-0.1-0.5s-0.5-0.4-0.6-0.8c-0.1-0.2,0-0.4,0.2-0.5
				c0.3-0.2,0.4-0.4,0.5-0.7c0.1-0.4-0.8-0.1-0.7-0.4c0.1-0.2,0.1-0.3,0.2-0.4c0.2-0.4,0.2-0.8,0-1.2
				C66.5,112.2,65.9,112.9,65.8,113.2z"/>
			<path id="Shape_77_" class="st21" d="M68.5,111.5c-0.2,0.3-0.1,1.9-0.6,2.2s-1,0-1.2,0c0.3-0.1,1-0.2,1.2-0.5
				c0.3-0.5,0.2-1.1,0.3-1.6c0.1-0.2,0.2-0.4,0.4-0.5c0.1-0.1,0.2-0.1,0.4-0.1c0.2,0.1,0.3,0.2,0.4,0.4
				C69.2,111.3,68.7,111.2,68.5,111.5z"/>
			<path id="Shape_78_" class="st30" d="M74.1,146.3c0,0.4-10.3,0.3-8.7-5.9c0.9-3.4-3-8.2-1-15.4c0.4-1.3,2.4-2.6,3.7-2.2
				c2.9,0.8,6.7,3.8,7.6,5.3c1.4,2.4,0.2,8.4,0.3,11.7C76.1,139.9,74.1,145.9,74.1,146.3z"/>
			<path id="Shape_79_" class="st10" d="M83.4,124c0,0,3.9-0.8,4.1-0.9c0.2-0.1,1.7-3.6,1.4-3.7s-1,0.8-1,0.8l-1.2,1.6
				C86.7,121.7,82.9,121.5,83.4,124z"/>
			<path id="Shape_80_" class="st10" d="M85,123.6c0,0-4.9,10.7-7.3,11.3c-1.4,0.4-9.9-5.9-9.9-5.9l3.6-3.7c0,0,5.2,4.9,5.7,5.8
				l6.5-8.2L85,123.6z"/>
			<path id="Shape_81_" class="st8" d="M75.9,129.6l-2.6,3.6c-2-1-3.9-2.3-5.4-4c-2.9-3-0.2-6.4,2-5
				C72.2,125.7,75.9,129.6,75.9,129.6z"/>
			<path id="Shape_82_" class="st11" d="M78.7,166.7c0.2,0.9-16.2,0.9-16.1,0.1c0.3-3.7,1.3-26.4,3.1-27.1l10.6,0.3
				C78,141.9,77.4,159.6,78.7,166.7z"/>
			<g id="Group" transform="translate(57.624792, 33.957447)" class="st31">
				<polygon id="Shape_83_" class="st32" points="9.4,107 8,133.3 8.4,133.3 				"/>
				<polygon id="Shape_84_" class="st32" points="8.7,107 7.4,133.3 7.1,133.3 				"/>
				<polygon id="Shape_85_" class="st32" points="8.1,107 6.1,133.3 6.5,133.3 				"/>
				<polygon id="Shape_86_" class="st32" points="7.5,107 5.3,133.3 5.7,133.3 				"/>
				<polygon id="Shape_87_" class="st32" points="10.1,107 8.9,133.4 9.3,133.4 				"/>
				<polygon id="Shape_88_" class="st32" points="10.7,107 9.9,133.4 10.2,133.4 				"/>
				<polygon id="Shape_89_" class="st32" points="11.4,107 10.8,133.4 11.2,133.4 				"/>
				<polygon id="Shape_90_" class="st32" points="12.3,107 11.7,133.4 12.1,133.4 				"/>
				<polygon id="Shape_91_" class="st32" points="13.2,107 12.7,133.4 13.1,133.4 				"/>
				<polygon id="Shape_92_" class="st32" points="14.2,107 13.6,133.4 14,133.4 				"/>
				<polygon id="Shape_93_" class="st32" points="15,107 14.4,133.4 14.9,133.4 				"/>
				<polygon id="Shape_94_" class="st32" points="15.7,107 15.4,133.4 15.9,133.4 				"/>
				<polygon id="Shape_95_" class="st32" points="16.3,107 16.4,133.4 16.8,133.4 				"/>
				<polygon id="Shape_96_" class="st32" points="17,107 17.3,133.4 17.7,133.4 				"/>
				<polygon id="Shape_97_" class="st32" points="17.6,107 18.3,133.4 18.7,133.4 				"/>
				<polygon id="Shape_98_" class="st32" points="18.2,107 19.2,133.4 19.6,133.4 				"/>
				<polygon id="Shape_99_" class="st32" points="18.7,107 20.2,133.4 20.5,133.4 				"/>
			</g>
			<polygon id="Shape_100_" class="st32" points="76.3,140.1 65.4,139.8 65.5,138.7 76.1,138.9 			"/>
			<path id="Shape_101_" class="st33" d="M12.4,124.6c-0.1-0.3-0.1-0.7,0-1c0.2-0.5,3-3.3,4.8-3.9c1.4-0.5,5.3-1.1,5.6-0.6
				c0.3,0.5-0.3,0.7-0.3,0.7c0.2,0.2,0.2,0.5,0.1,0.8c-0.1,0.2-0.7,0.2-0.7,0.2s0.8,0.2,1.1,0.5c0.3,0.3,1.4,3.3,1,4.1
				c-0.3,0.7-1.1,1-1.2,0.9c-0.1-0.1-0.3-3.3-3.3-4.6c-1.1-0.5-2.6-0.2-4,0.4C14,122.8,12.4,124.6,12.4,124.6z"/>
			<circle id="Oval" class="st7" cx="12.7" cy="123.9" r="1"/>
			<path id="Shape_102_" class="st6" d="M12.6,123.9c-0.2,0.1-0.4,0.3-0.6,0.6c-0.2,0.5-0.4,0.9-0.7,1.3c-0.4,0.4-0.6,0.9-0.4,1.5
				c0,0.1,0.2,0,0.2-0.1c-0.4-0.7,0.4-1.2,0.7-1.7c0.4-0.5,0.4-1.1,0.9-1.4c0,0,0-0.1,0-0.1S12.6,123.9,12.6,123.9L12.6,123.9z"/>
			<polygon id="Shape_103_" class="st34" points="19.5,184.8 19.8,188.5 10.4,188.8 10.7,187.5 14.7,184.8 			"/>
			<path id="Shape_104_" class="st35" d="M20.2,188.7c0-0.3,0.3-2.3-0.3-2.6c-0.6-0.3-2.1,1.1-3.4,1s-2.1-0.2-2.1-0.5
				c0-0.4,0.4-0.2,0.3-0.5s-0.1-0.9-0.3-0.9c-0.2,0-1.9,1.2-3.6,1.6s-4.3,0.8-4.6,0.9c-0.2,0.2-0.4,0.3-0.4,0.5
				c0,0.3,1.6,1.8,3.8,1.7s5.3,0.5,7,0.3S20.2,188.9,20.2,188.7z"/>
			<path id="Shape_105_" class="st15" d="M20.2,188.7c0,0,0.2,1,0,1.4c-0.2,0.4-11,0.1-11.6,0c-0.9-0.2-3-0.7-3.1-0.9
				s-0.2-1,0.2-1.3c0.4-0.3,1.9,1,6.6,1.1C15.1,189.1,20.1,188.9,20.2,188.7z"/>
			<path id="Shape_106_" class="st25" d="M14.4,186.4l0.4,0.5l-1.8,0.6C12.6,187,14.4,186.4,14.4,186.4z"/>
			<path id="Shape_107_" class="st36" d="M13,185.6c0,0.8,7.5,1.8,7.5,1c0-0.5-2.2-22.9,0.9-32.5c1.8-5.6,1-6.2,1-6.2l-6.9-3.2
				l-5.5,3.1c0,0,1.6,14.8,1.8,20.1c0.2,5.2,1.2,12.8,1.4,15.6c0,0.2,0.4,1.1,0.4,1.2C13.6,185.1,13,185.6,13,185.6z"/>
			<path id="Shape_108_" class="st34" d="M21.7,114.5c0.1-0.6-0.3-1-0.5-1.5c-0.2-0.3-0.4-0.7-0.7-0.9c-0.5-0.6-0.1-2.1,0.2-2.8
				c-1.1-0.5-1.9-1-3.4-0.9c-0.6,0.3-1.1,0.8-1.5,1.3c-0.3,0.3-0.6,0.7-0.8,1.1c-1.3,2.4-2.7,4.8-0.3,6.1c1.4,0.8,4.3,0.8,5.7,0.3
				C20,116.3,21.4,115.3,21.7,114.5z"/>
			<path id="Shape_109_" class="st37" d="M22,108.4c-1.1-0.6-2.6-1.1-3.6-1.1s-2,0-1.2,1.1c0.5,0,2.2,0.5,2.5,1
				c0.1,0.2-0.8,1-0.8,1.1c0.4,1.3,0,2.3,0.6,2.2c0.2-0.2,0.6-0.3,0.9-0.3s0.6,0.2,0.8,0.5c0.4,0.7-1.1,2.5-1.3,4.3
				c1.6-0.4,3.1-1.1,3.6-2.1C24.8,112.7,24.4,109.7,22,108.4z"/>
			<path id="Shape_110_" class="st34" d="M16.6,108.8c0,0-2.9,2.5-3,2.8c-0.1,0.3,1.1,1.1,1.1,1.1L16.6,108.8z"/>
			<path id="Shape_111_" class="st38" d="M9.6,148.9c0,0,10.7,0,13,0.7c1.2-2.1-0.5-6.8,0.4-11.4c1.4-6.6,0.1-14.2-1.9-15.8
				c-2.1-1.7-5-1.4-7.5,0.9c-1.6,1.4-2.7,3.3-3.3,5.4c-0.6,2.4-0.6,7.7-0.8,12.2C9.3,145.6,8.9,148.1,9.6,148.9z"/>
			<path id="Shape_112_" class="st34" d="M12,150.5c0,0-1.4,4.1-1.5,4.3c0,0.2,1.9,3.9,2.2,3.7c0.4-0.2,0-1.4,0-1.4l-0.5-2
				C12.2,155.2,15.1,152.2,12,150.5z"/>
			<polygon id="Shape_113_" class="st34" points="13.3,140.5 11.6,152 13.5,152.4 18.6,140.5 			"/>
			<path id="Shape_114_" class="st33" d="M11.2,152.1c0,0,2.5-23.5,2.9-26c0.4-2.5,5.8-2.6,5.9,0.8c0,1.8,0,8.1-1.4,13.9
				c-1.4,5.8-4,11.3-4.1,11.5C14.3,152.8,11.2,152.1,11.2,152.1z"/>
			<path id="Shape_115_" class="st38" d="M11.3,150.4c0,0-0.3,1.8-0.3,2.1c0,0.4,2.9,0.7,3.1,0.5c0.3-0.7,0.6-1.4,0.9-2.1
				L11.3,150.4z"/>
			<path id="Shape_116_" class="st33" d="M9.5,149.1c0.3,0.6,13.1,0.8,13.3,0.6c0.1-0.2,0.6-1.9,0.4-1.8c-0.3,0.1-13.7-0.8-13.9-1
				C9.1,147.7,9.2,148.4,9.5,149.1z"/>
			<path id="Shape_117_" class="st39" d="M53.6,132c0,0,2.6-2.8,2.7-3s-0.7-3.8-1.1-3.7s-0.3,1.2-0.3,1.2v1.9
				C54.8,128.3,51.8,130.3,53.6,132z"/>
			<path id="Shape_118_" class="st40" d="M41.6,117.1c0,0.7,0.1,2.9,0.4,3.5c0.4,1.1,0.5,1,0.9,2.1c0.3,0.9-0.6,3.8-0.3,4.1
				c0.2,0.4,3.3,0.8,4.1,0.2c0,0-1.2-2-1.4-3.3c-0.2-1.2-0.8-4.4-1.1-4.7c-0.5-0.5-1.3,0.2-1.8-0.3"/>
			<polygon id="Shape_119_" class="st41" points="43.5,126 39.3,126 39.6,120 43.1,120 			"/>
			<path id="Shape_120_" class="st42" d="M38.5,188.7l-0.4,0.2L38.5,188.7z"/>
			<path id="Shape_121_" class="st39" d="M38.3,185.1v-0.9c-0.2-0.7-0.3-1.4-0.3-2.1c0.1-0.9,1.4-9.8,1.4-12
				c-0.1-2.2-0.4-6.7-0.4-7.8c0-1-5-0.7-5-0.7l0.1,2.2c-0.1,0.6-0.1,5.9,0,7.5c0.1,1.7,1.8,10.3,1.8,11c0,0.6-0.1,1.2-0.3,1.9
				l-0.1,0.9c-0.1,1-0.3,1.8-0.4,2.8c-0.2,1.1,3.1,1.8,3.3,0.2c0.1-0.5,0.3-1,0.3-1.4C38.6,186.2,38.3,185.7,38.3,185.1z"/>
			<polygon id="Shape_122_" class="st42" points="44.4,188.7 44.8,189 44.4,188.7 			"/>
			<path id="Shape_123_" class="st39" d="M44.4,186.2l0.2-1.7c0,0,0.4-1.5,0.3-2.4c-0.1-0.9-1.4-9.8-1.4-12c0.1-2.2,0.4-6.7,0.4-7.8
				c0-1,5-0.7,5-0.7l-0.1,2.2c0.1,0.6,0.1,5.9,0,7.5c-0.1,1.7-1.8,10.3-1.8,11c0,0.7,0.1,1.8,0.1,1.8v0.8c0.1,1,0.7,2.1,0.8,3.2
				c0.2,1.1-3.2,1.6-3.4,0c0-0.5,0-1,0.1-1.4C44.7,186.2,44.3,186.8,44.4,186.2z"/>
			<polygon id="Shape_124_" class="st41" points="44.5,130.6 37.6,130.6 37.5,124.9 41,123.9 44.6,124.9 			"/>
			<path id="Shape_125_" class="st41" d="M44.1,116.5l0.4-0.1c0.2-0.1,0.5,0.1,0.5,0.3l0.2,0.7c0.1,0.4-0.2,0.9-0.6,1l-0.1,0
				L44.1,116.5z"/>
			<path id="Shape_126_" class="st41" d="M37.4,120.1L37.4,120.1c-0.5,0.1-1-0.2-1.1-0.6l-0.2-0.7c0-0.1,0-0.2,0.1-0.3
				c0.1-0.1,0.2-0.2,0.3-0.2l0.4-0.1L37.4,120.1z"/>
			<path id="Shape_127_" class="st36" d="M49.5,151.2c-0.6-2.4-1.1-7-1.1-7l-7.1,2.9l-7.3-2.1c-0.1,2.1-0.4,4.2-0.9,6.2
				c-0.3,1.3-0.2,4-0.2,4l1.5,29l2.5,0.9l2.2-0.9l0.3-11.5l0.9-10.8l0.5-4l0.4-1.1l0.4,1.1l0.5,4l0.9,10.8l0.3,11.5l2.2,0.9l2.5-0.9
				l1.5-29.1C49.6,155.2,49.7,152.4,49.5,151.2z"/>
			<path id="Shape_128_" class="st39" d="M31.7,153.2c0,0-0.5,3.8-0.5,4c0,0.2,2.7,2.7,3,2.4c0.3-0.3-0.4-1.2-0.4-1.2l-1-1.5
				C32.7,156.9,34.1,153.6,31.7,153.2z"/>
			<path id="Shape_129_" class="st43" d="M32.3,142.6l-2.8,2.6c-2.2-2,0-11.6,1-14.2c2.9-7.5,5.4-3.8,5.2-0.7
				C35.4,133.5,32.3,142.6,32.3,142.6z"/>
			<path id="Shape_130_" class="st43" d="M33.2,153.8l-2.3,0.5c-0.4-1.4-3.5-12.4-1.8-12.9c1.4-0.4,3.4,0.4,3.4,0.4L33.2,153.8z"/>
			<path id="Shape_131_" class="st43" d="M49.1,131.5c-0.1-3.1,1.5-4.5-0.8-5.4c-1.2-0.5-4.8-1.5-4.8-1.5s-0.5,2.4-2.4,2.4
				c-1.9,0-2.6-2.4-2.6-2.4s-3.9,1-5.3,2.2c-0.7,0.5-0.2,1.6-0.3,4.7c-0.1,1.3,0.7,6.3,1,10.5c0.2,3.4-0.8,7.2-0.8,7.2h16.1
				c0,0-1.2-3.8-1-7.3C48.4,137.7,49.2,132.8,49.1,131.5z"/>
			<path id="Shape_132_" class="st43" d="M49.2,141.8l3.3,0.3c2.2-2,0-9.1-1-11.7c-2.9-7.5-5.4-3.8-5.2-0.7
				C46.6,132.8,49.2,141.8,49.2,141.8z"/>
			<path id="Shape_133_" class="st43" d="M52.5,130.6l2.3,0.3c-0.1,1.4-0.9,12.8-2.6,12.7c-1.5-0.1-3-1.8-3-1.8L52.5,130.6z"/>
			<path id="Shape_134_" class="st42" d="M34.5,145.6L34.5,145.6"/>
			<path id="Shape_135_" class="st44" d="M38.6,124.3c0,1,0.2,2.1,0.5,3.1c0.2,0.5,0.4,0.9,0.8,1.2c0.4,0.3,0.8,0.5,1.3,0.5
				c0.5,0,0.9-0.1,1.3-0.3c0.4-0.3,0.7-0.6,0.9-1.1c0.2-0.5,0.3-1,0.4-1.5c0.1-0.5,0.1-1,0.1-1.6c0.1,0.5,0.2,1.1,0.2,1.6
				c0,0.6-0.1,1.1-0.3,1.6c-0.2,0.6-0.5,1.1-1,1.4c-0.5,0.3-1.1,0.5-1.7,0.4c-0.6,0-1.2-0.2-1.6-0.7c-0.4-0.4-0.7-0.9-0.8-1.5
				C38.3,126.4,38.3,125.3,38.6,124.3z"/>
			<ellipse id="Oval_1_" class="st44" cx="41.2" cy="130.3" rx="1" ry="1"/>
			<path id="Shape_136_" class="st40" d="M37.7,118.7c-0.2,0.7-0.7,2.7-0.7,3.5c0,1.2,0.2,1.1,0.2,2.3c0,0.9-1.7,3.4-1.6,3.8
				s2.9,1.8,3.8,1.4c0,0-0.5-2.3-0.3-3.5c0.2-1.2,0.6-4.5,0.4-4.8c-0.4-0.7-1.3-0.2-1.6-0.9"/>
			<path id="Shape_137_" class="st39" d="M39.5,113.1c-2,0.5-3.2,2.6-2.7,4.6l0.4,1.8c0.3,1.4,1.6,2.7,2.6,3.5l0.6,0.5
				c0.3,0.3,0.8,0.4,1.2,0.3l0.8-0.2c0.4-0.1,0.8-0.4,1-0.8l0.4-0.7c0.5-1.1,1.1-2.9,0.8-4.2l-0.4-1.9c-0.2-1-0.8-1.8-1.7-2.4
				C41.5,113,40.5,112.9,39.5,113.1z"/>
			<path id="Shape_138_" class="st40" d="M36.9,118.1c-0.9-1.4-1-2.5-0.7-3.5c0.4-1.1,0.9-1.3,1.6-1.4c0.4-0.5,1.5-1.1,3-1.1
				c1.1,0,3.8,0.8,3.3,4.3c-1.8,0.1-4.2,0.5-6.1-2.2C38.1,115.6,37.4,115.3,36.9,118.1z"/>
			<path id="Shape_139_" class="st45" d="M33.8,189c0.2-0.4,0.5-0.6,0.8-0.9c0.2-0.4,0.4-0.8,0.4-1.3c0-0.1,0-0.2,0.1-0.3
				c0-0.1,0.1-0.1,0.2-0.2c0.8-0.5,1.7-0.7,2.6-0.5c0.3,0.1,0.6,0.2,0.8,0.5c0.1,0.1,0.2,0.3,0.2,0.5c0,0.3,0.1,0.5,0.1,0.8v2.2
				c0,0,0,0.1,0,0.1c-0.1,0.1-0.2,0-0.3,0c-0.4-0.2-0.9-0.3-1.4-0.2c-0.9,0-1.7,0.1-2.5,0.2c-0.2,0-0.8,0.3-1,0.1
				C33.5,189.8,33.7,189.2,33.8,189z"/>
			<path id="Shape_140_" class="st25" d="M33.6,190.1c-0.1-0.1,0.2-0.9,2.9-0.8c1.3,0.1,2.5,0.3,2.5,0.7c0,0.4-1.4,0.3-2.4,0.3
				S33.9,190.2,33.6,190.1z"/>
			<path id="Shape_141_" class="st44" d="M35.1,188.3c0.8-0.3,2.1-0.6,2.8,0c0.2,0.1,0.4-0.1,0.2-0.2c-0.9-0.7-2.2-0.5-3.2-0.1
				C34.8,188,34.9,188.4,35.1,188.3L35.1,188.3z"/>
			<path id="Shape_142_" class="st46" d="M36.9,185.9c-0.1,0-0.3,0-0.4,0.1c-0.1,0-0.2,0.1-0.3,0.3c0.3-0.1,0.7-0.1,1,0
				c0.2,0,0.4,0.1,0.5,0.3c-0.5,0-1.1,0-1.6,0.2l0.8,0.1c0.2,0,0.5,0.1,0.6,0.3c-0.3,0-0.6,0-0.9,0c-0.2,0-0.5,0.1-0.7,0.2
				c0.5,0,1,0,1.5,0.1"/>
			<path id="Shape_143_" class="st46" d="M37.1,185.5c-0.6,0.1-1.1,0.3-1.5,0.7c-0.3,0.2-0.6,0.4-0.8,0.7c-0.2,0.1-0.3,0.3-0.4,0.5
				c0,0.1,0,0.2,0,0.2c0.1,0,0.1,0.1,0.2,0.1c0.5,0,0.9-0.5,1.3-1S36.5,185.7,37.1,185.5c0.1,0.6,0.4,1,0.8,1.5
				c0.4,0.4,0.9,0.7,1.5,0.7c-0.1-0.6-0.6-1.1-1.1-1.4c-0.4-0.3-0.9-0.6-1.4-0.8"/>
			<path id="Shape_144_" class="st27" d="M34.2,190c1.2-0.2,3-0.5,4.2,0.1c0.2,0.1,0.4-0.2,0.2-0.3c-1.3-0.6-3.1-0.4-4.5-0.1
				C33.9,189.7,34,190,34.2,190z"/>
			<path id="Shape_145_" class="st45" d="M49,189c-0.2-0.4-0.5-0.6-0.8-0.9c-0.2-0.4-0.4-0.8-0.4-1.3c0-0.1,0-0.2-0.1-0.3
				c0-0.1-0.1-0.1-0.2-0.2c-0.8-0.5-1.7-0.7-2.6-0.5c-0.3,0.1-0.6,0.2-0.8,0.5c-0.1,0.1-0.2,0.3-0.2,0.5c0,0.3-0.1,0.5-0.1,0.8v2.2
				c0,0,0,0.1,0,0.1c0.1,0.1,0.2,0,0.3,0c0.4-0.2,0.9-0.3,1.4-0.2c0.9,0,1.7,0.1,2.5,0.2c0.2,0,0.8,0.3,1,0.1
				C49.3,189.8,49.1,189.2,49,189z"/>
			<path id="Shape_146_" class="st25" d="M49.2,190.1c0.1-0.1-0.2-0.9-2.9-0.8c-1.3,0.1-2.5,0.3-2.5,0.7c0,0.4,1.4,0.3,2.4,0.3
				S48.9,190.2,49.2,190.1z"/>
			<path id="Shape_147_" class="st44" d="M47.8,188c-1-0.3-2.3-0.6-3.2,0.1c-0.2,0.1,0.1,0.4,0.2,0.2c0.8-0.6,2-0.3,2.8,0
				C47.9,188.4,47.9,188,47.8,188L47.8,188z"/>
			<path id="Shape_148_" class="st46" d="M45.9,185.9c0.1,0,0.2,0,0.4,0.1c0.1,0,0.2,0.1,0.3,0.3c-0.3-0.1-0.7-0.1-1,0
				c-0.2,0-0.4,0.1-0.5,0.3c0.5,0,1.1,0,1.6,0.2l-0.8,0.1c-0.2,0-0.5,0.1-0.6,0.3c0.3,0,0.6,0,0.9,0c0.2,0,0.5,0.1,0.7,0.2
				c-0.5,0-1,0-1.5,0.1"/>
			<path id="Shape_149_" class="st46" d="M45.7,185.5c0.6,0.1,1.1,0.3,1.5,0.7c0.3,0.2,0.6,0.4,0.8,0.7c0.2,0.1,0.3,0.3,0.4,0.5
				c0,0.1,0,0.2,0,0.2c-0.1,0-0.1,0.1-0.2,0.1c-0.5,0-0.9-0.5-1.3-1S46.3,185.7,45.7,185.5c-0.1,0.6-0.4,1-0.8,1.5
				c-0.4,0.4-0.9,0.7-1.5,0.7c0.1-0.6,0.6-1.1,1.1-1.4c0.4-0.3,0.9-0.6,1.3-0.8"/>
			<path id="Shape_150_" class="st27" d="M48.7,189.7c-1.4-0.3-3.2-0.5-4.5,0.1c-0.2,0.1,0,0.4,0.2,0.3c1.2-0.6,3-0.3,4.2-0.1
				C48.9,190,49,189.7,48.7,189.7z"/>
		</g>
	</g>
</g>
</svg>
