<svg xmlns="http://www.w3.org/2000/svg" viewBox="0 0 100 48.86"><defs><style>.cls-1{fill-rule:evenodd}.cls-2{fill:#fff}</style></defs><title>logo_VeriSign_Black</title><path d="M290.09 384.17h47.16a17 17 0 0 1 12 4.57 14.59 14.59 0 0 1 4.93 11.06 14.62 14.62 0 0 1-4.93 11 17 17 0 0 1-12 4.61h-47.16a.68.68 0 1 0 0 1.35h47.16a18.39 18.39 0 0 0 12.92-5 16 16 0 0 0 5.36-11.95 16 16 0 0 0-5.36-12 18.35 18.35 0 0 0-12.92-4.93h-47.16a.68.68 0 1 0 0 1.29zm0 0h47.16a17 17 0 0 1 12 4.57 14.59 14.59 0 0 1 4.93 11.06 14.62 14.62 0 0 1-4.93 11 17 17 0 0 1-12 4.61h-47.16a.68.68 0 1 0 0 1.35h47.16a18.39 18.39 0 0 0 12.92-5 16 16 0 0 0 5.36-11.95 16 16 0 0 0-5.36-12 18.35 18.35 0 0 0-12.92-4.93h-47.16a.68.68 0 1 0 0 1.29z" transform="translate(-255.53 -371.78)"/><path class="cls-1" d="M285.9 383.8a17.58 17.58 0 0 1 6.41 6.36 18.06 18.06 0 0 1 2.4 9 17.83 17.83 0 0 1-2.4 9 18.05 18.05 0 0 1-6.41 6.41 17.69 17.69 0 0 1-24.28-6.41 17.32 17.32 0 0 1-2.44-9 17.66 17.66 0 0 1 2.44-9 17.15 17.15 0 0 1 6.38-6.36 17.66 17.66 0 0 1 17.91 0m-9-6.06a21.23 21.23 0 0 0-10.81 2.92 22.66 22.66 0 0 0-7.67 7.67 21.46 21.46 0 0 0 0 21.62 22.91 22.91 0 0 0 7.67 7.76 22.14 22.14 0 0 0 10.81 2.92 21.28 21.28 0 0 0 10.85-2.92 22.29 22.29 0 0 0 7.71-7.76 21.68 21.68 0 0 0 2.92-10.81 21.25 21.25 0 0 0-2.92-10.81 22 22 0 0 0-7.71-7.67 21.28 21.28 0 0 0-10.83-2.91z" transform="translate(-255.53 -371.78)"/><path d="M48.29 21.18h1.48l1.57 4.32 1.61-4.32h1.44l-2.44 6.15h-1.18l-2.48-6.15"/><path d="M320.86 394.39h1.35v4.66h-1.35v-4.66zm0-1.7h1.39v1.18h-1.39v-1.17zm-4.18 1.7h1.31v.92a2 2 0 0 1 .57-.74 1.06 1.06 0 0 1 .92-.26v1.4a1.28 1.28 0 0 0-1 .39 1.75 1.75 0 0 0-.39 1.26v1.7h-1.31v-4.66zm-2.83 2a1.41 1.41 0 0 0-.31-.74.88.88 0 0 0-.65-.26.92.92 0 0 0-.7.26 1.46 1.46 0 0 0-.35.74h2zm-.87 2.83a2.55 2.55 0 0 1-1-.22 1.82 1.82 0 0 1-.78-.48 2.18 2.18 0 0 1-.48-.74 2.58 2.58 0 0 1-.22-1 2.57 2.57 0 0 1 .65-1.74 2.27 2.27 0 0 1 .74-.52 2.35 2.35 0 0 1 1-.17 2.41 2.41 0 0 1 1 .22 1.5 1.5 0 0 1 .7.57 3.37 3.37 0 0 1 .44.78 3.64 3.64 0 0 1 .13 1v.34h-3.22a1 1 0 0 0 .39.7 1.36 1.36 0 0 0 .74.22 1.54 1.54 0 0 0 .61-.13 2.1 2.1 0 0 0 .52-.35l.74.65a1.86 1.86 0 0 1-.78.65 2.29 2.29 0 0 1-1.23.19zM326.3 399.15a4 4 0 0 1-1.39-.26 3.29 3.29 0 0 1-1.22-.74l.83-.91a3.31 3.31 0 0 0 .83.52 2.37 2.37 0 0 0 1 .22.9.9 0 0 0 .65-.17.46.46 0 0 0 .22-.39v-.26L327 397l-.35-.17-.65-.22-.83-.22-.65-.35-.39-.52a1.87 1.87 0 0 1-.13-.74l.13-.74a1.52 1.52 0 0 1 .48-.57 1.65 1.65 0 0 1 .65-.39 2.81 2.81 0 0 1 .87-.13 3.78 3.78 0 0 1 1.22.22 3 3 0 0 1 1 .57l-.7 1-.83-.44a1.7 1.7 0 0 0-.82-.3.74.74 0 0 0-.57.17.44.44 0 0 0-.22.35l.09.26.17.17.44.17.65.17.83.31a2.77 2.77 0 0 1 .61.35l.35.48a1.81 1.81 0 0 1 .13.7 1.49 1.49 0 0 1-.17.78 1.44 1.44 0 0 1-.44.61 2.9 2.9 0 0 1-.74.35 2.8 2.8 0 0 1-.87.13M330.23 394.39h1.35v4.66h-1.35v-4.66zm0-1.7h1.39v1.18h-1.39v-1.17zM340 394.39h1.31v.61l.26-.26.3-.26.35-.17h.44a1.48 1.48 0 0 1 1.18.48 1.65 1.65 0 0 1 .44 1.26v3h-1.35v-2.61a1.11 1.11 0 0 0-.17-.7 1 1 0 0 0-1.22 0 1.11 1.11 0 0 0-.22.7v2.61H340v-4.66m-4.18 3.18l.48-.09a.77.77 0 0 0 .35-.22 1 1 0 0 0 .22-.35 1.29 1.29 0 0 0 .09-.44l-.09-.44a1 1 0 0 0-.22-.35l-.35-.22-.48-.09-.44.09-.35.22a.67.67 0 0 0-.26.35l-.09.44a1 1 0 0 0 .35.78 1 1 0 0 0 .78.33zm-.13 2.88l-1.09-.13a2.5 2.5 0 0 1-1-.35l.48-1 .74.35.83.09a1.39 1.39 0 0 0 1-.31 1.27 1.27 0 0 0 .31-1v-.22a2.5 2.5 0 0 1-.61.57 1.8 1.8 0 0 1-.91.17 2.47 2.47 0 0 1-.78-.13 1.92 1.92 0 0 1-.65-.44 2.46 2.46 0 0 1-.44-.65 2.35 2.35 0 0 1-.17-1 2 2 0 0 1 .17-.92 2.14 2.14 0 0 1 .44-.7 1.71 1.71 0 0 1 .7-.44l.74-.13a1.77 1.77 0 0 1 .91.22 2.1 2.1 0 0 1 .61.48v-.61h1.31v3.7a2.5 2.5 0 0 1-.57 1.83 2 2 0 0 1-.83.48zM307.22 406.77a4 4 0 0 1-1.39-.26 3.29 3.29 0 0 1-1.22-.74l.83-.91a3.32 3.32 0 0 0 .83.52 2.37 2.37 0 0 0 1 .22.91.91 0 0 0 .65-.17.46.46 0 0 0 .22-.39v-.26l-.22-.17-.35-.17-.65-.22-.92-.22-.65-.35-.39-.52a1.87 1.87 0 0 1-.13-.74l.13-.74a1.52 1.52 0 0 1 .48-.57 1.64 1.64 0 0 1 .65-.39 2.82 2.82 0 0 1 .87-.13 3.79 3.79 0 0 1 1.22.22 3 3 0 0 1 1 .57l-.7 1-.83-.44a1.7 1.7 0 0 0-.78-.17.74.74 0 0 0-.57.17.44.44 0 0 0-.22.35l.09.26.17.17.44.17.65.17.83.31a2.78 2.78 0 0 1 .61.35l.35.48a1.81 1.81 0 0 1 .13.7 1.49 1.49 0 0 1-.17.78 1.44 1.44 0 0 1-.44.61 2.9 2.9 0 0 1-.74.35 2.8 2.8 0 0 1-.87.13M319.55 406.82a2.38 2.38 0 0 1-1-.22 2.5 2.5 0 0 1-.78-.52 2.18 2.18 0 0 1-.48-.74 2.55 2.55 0 0 1-.22-1 2.94 2.94 0 0 1 .7-1.74 2.48 2.48 0 0 1 .78-.52 2.43 2.43 0 0 1 1-.17 2.68 2.68 0 0 1 1.09.22 1.89 1.89 0 0 1 .74.57l-.78.87a1.36 1.36 0 0 0-.48-.39 1.16 1.16 0 0 0-.61-.13l-.44.09-.35.31-.26.39-.09.48a1.58 1.58 0 0 0 .09.48.9.9 0 0 0 .26.44.67.67 0 0 0 .35.26 1.64 1.64 0 0 0 .52.09 1.21 1.21 0 0 0 .57-.13l.48-.35.78.78a3.76 3.76 0 0 1-.78.61 2.18 2.18 0 0 1-1.13.26m-5.19-2.76a1.41 1.41 0 0 0-.3-.74.89.89 0 0 0-.65-.26.92.92 0 0 0-.7.26 1.46 1.46 0 0 0-.35.74h2zm-.87 2.83a2.56 2.56 0 0 1-1-.22 1.83 1.83 0 0 1-.78-.48 2.17 2.17 0 0 1-.48-.74 2.59 2.59 0 0 1-.22-1 2.35 2.35 0 0 1 .17-1 2.38 2.38 0 0 1 .48-.78 2.29 2.29 0 0 1 .74-.52 2.35 2.35 0 0 1 1-.17 2.42 2.42 0 0 1 1 .22 1.5 1.5 0 0 1 .7.57 3.36 3.36 0 0 1 .44.78 3.66 3.66 0 0 1 .13 1v.34h-3.22a1 1 0 0 0 .39.7 1.36 1.36 0 0 0 .74.22 1.53 1.53 0 0 0 .61-.13 2.11 2.11 0 0 0 .52-.35l.74.65a1.86 1.86 0 0 1-.79.65 2.29 2.29 0 0 1-1.17.25zM324.65 406.77a1.6 1.6 0 0 1-1.18-.48 1.83 1.83 0 0 1-.39-1.26v-3h1.31v2.62a1.11 1.11 0 0 0 .22.7.86.86 0 0 0 .61.22 1 1 0 0 0 .61-.22 1.11 1.11 0 0 0 .22-.7V402h1.31v4.66H326V406l-.26.26-.3.26-.35.17h-.48M342.17 405.64a1.58 1.58 0 0 0 .48-.09l.35-.26a1.75 1.75 0 0 0 .22-.39l.09-.52-.09-.52-.22-.39-.35-.26a1.57 1.57 0 0 0-.48-.09l-.44.09-.35.26-.26.39a1.64 1.64 0 0 0-.09.52l.09.52a1 1 0 0 0 .26.39l.35.26.44.09m-.31 1.13a1.78 1.78 0 0 1-.83-.17 1.92 1.92 0 0 1-.65-.44 2.39 2.39 0 0 1-.48-.78 2.42 2.42 0 0 1-.17-1 2.64 2.64 0 0 1 .17-1 2.18 2.18 0 0 1 .48-.74 1.34 1.34 0 0 1 .65-.44 1.78 1.78 0 0 1 .83-.17 1.72 1.72 0 0 1 .87.22 1.51 1.51 0 0 1 .57.48v-2.31h1.31v6.36h-1.31V406a1.64 1.64 0 0 1-.57.52 1.72 1.72 0 0 1-.87.25zm-5-2.79a1.42 1.42 0 0 0-.3-.74.89.89 0 0 0-.65-.26.92.92 0 0 0-.7.26 1.47 1.47 0 0 0-.35.74h2zm-.86 2.84a2.56 2.56 0 0 1-1-.22 1.82 1.82 0 0 1-.78-.48 2.17 2.17 0 0 1-.48-.74 2.59 2.59 0 0 1-.22-1 2.35 2.35 0 0 1 .17-1 2.38 2.38 0 0 1 .48-.78 2.29 2.29 0 0 1 .74-.52 2.36 2.36 0 0 1 1-.17 2.42 2.42 0 0 1 1 .22 1.5 1.5 0 0 1 .7.57 3.35 3.35 0 0 1 .44.78 3.62 3.62 0 0 1 .13 1v.34h-3.22a1 1 0 0 0 .39.7 1.36 1.36 0 0 0 .74.22 1.53 1.53 0 0 0 .61-.13 2.12 2.12 0 0 0 .52-.35l.74.65a1.87 1.87 0 0 1-.78.65 2.29 2.29 0 0 1-1.18.26zm-6.56-4.82h1.31v.92a2 2 0 0 1 .57-.74 1.06 1.06 0 0 1 .92-.26v1.4a1.29 1.29 0 0 0-1 .39 1.75 1.75 0 0 0-.39 1.26v1.7h-1.31V402z" transform="translate(-255.53 -371.78)"/><path class="cls-1" d="M346.88 382.24h1.87v.44h-.65v1.79h-.52v-1.79h-.7v-.44m4.66 0v2.22H351V383l-.57 1h-.09l-.57-1v1.44h-.52v-2.22h.57l.61 1 .57-1h.52zM289.65 388.82H288v1.66h1.61v-1.66zm-1.65-4.19h1.61v1.61H288v-1.61zm4.18-4.27h-1.66v-1.61h1.66v1.61zm3.23-3.36h3.18v-1.74h-3.18v5.1h-3.23V382h-2.75v1.13H288v1.48h-1.7v2.57h-1.66v1.61h-1.09v1.66h-1.22a54.22 54.22 0 0 0-5.75 10.81c-3.14-4.4-6.06-7-8.76-7.89a1.15 1.15 0 0 0-1.57.61c-.3.65 0 1.48.87 2.44a45 45 0 0 1 7.58 12.73 2.57 2.57 0 0 0 2.4 1.48 2 2 0 0 0 2.31-1.31 53.39 53.39 0 0 1 5.93-11.59v-1.87h1.31v-1.61H288v-2h1.61v-1.83h1.66v-1.66h1.31v-2h1.44v-1.35h1.39V382h1.61v-1.66h1.87v-1.66h-1.87v1.66h-1.61V382h-1.61v1.61h-1.61V382h1.61v-5h1.61z" transform="translate(-255.53 -371.78)"/><path d="M39.92 5.23h1.61v1.7h-1.61z"/><path class="cls-2" d="M32.51 12.86h1.61v1.61h-1.61z"/><path d="M44.93 3.49h1.74v1.74h-1.74zM44.98 3.49V1.74h-1.75v1.75M44.93 0h1.74v1.74h-1.74z"/></svg>
