<svg width="290" height="40" viewBox="0 0 290 40" xmlns="http://www.w3.org/2000/svg"><title>logo_nyt</title><path d="M235.814 15.487l4.13-3.16.215-.102.29-.035.363.035 2.173 2.207c.072.104.145.172.217.24.108.102.18.17.253.204l.29.102.398-.07 3.658-2.514.325-.136.217-.068.254.102 2.534 2.617.181.204c.145.068.254.102.29.102.037 0 .218-.102.617-.34.398-.238.94-.578 1.557-.986.614-.442 1.158-.816 1.557-1.12.397-.307.65-.511.723-.579h.218c.145.068.253.102.29.137l2.606 2.684.218.17h.253l.29-.136 1.086-.713.254.272-1.593 1.087v9.285l.181.305 1.23 1.292.146.102c.217 0 .326-.035.399-.068l.724-.578v.407l-4.056 3.4-.218.101-.252.068-.291-.1-2.788-2.89c-.036-.068-.109-.136-.145-.17-.036-.068-.073-.136-.073-.205-.034-.135-.072-.237-.034-.305l.18-.239.326-.237.145-.374.108-.407v-7.381l-.253-.41-1.811-2.072-.218-.137-.326-.033-.723.407-.11.374v9.694l.98 1.087.072.135v.17l-.145.137-2.97 2.616-.217.102h-.18c-.11-.102-.182-.17-.255-.204l-2.606-2.684-.145-.239v-.204l.109-.237.795-.714v-8.162l-2.21-2.312-.36-.068c-.181.035-.362.135-.544.307l-.18.34v9.589l1.05 1.326.144.17v.204l-.216.307-3.007 2.514-.216.067h-.181l-.182-.17-2.717-3.024-.107-.205-.036-.202c.109-.103.143-.172.18-.205l.833-.68v-8.23l-1.738-1.973-.29-.135-.29.035-.181.067-.977.68-.218-.238zm-218.06 9.939c-.15.115-.308.227-.474.331l.474-.306v-.025zM4.836 15.339c-.04.277-.079.672-.079 1.105 0 .593.04 1.068.04 1.462 0 .593.04 1.067.119 1.502.118.434.237.948.355 1.46.159.514.435 1.108.83 1.778l.632 1.028c1.066-.593 1.66-.91 1.699-.949l.04-10.388-3.082 1.342c-.158.277-.277.475-.316.673-.08.197-.158.552-.238.987zm12.444-1.211l.198-.172-.198.172zm-.396-5.189c-.196 0-.393-.04-.67-.079a11.57 11.57 0 0 0-1.066-.237c-.435-.078-.87-.157-1.266-.238-.395-.117-.908-.235-1.58-.433l-3.12-.949c-.71-.198-1.146-.394-1.423-.433-.276-.08-.553-.158-.828-.198-.277-.04-.593-.119-.87-.158-.275-.04-.513-.08-.67-.08-.12 0-.278.04-.475.08-.198.04-.435.158-.633.277-.196.158-.356.275-.473.393l-.356.356a1.336 1.336 0 0 0-.237.475c-.04.158 0 .435.04.83l.158.513.118.316.158.356-.91-.356a1.452 1.452 0 0 1-.433-.395c-.118-.119-.237-.396-.435-.75-.355-.554-.514-1.186-.514-1.897 0-.435.04-.79.08-1.066.039-.276.197-.711.434-1.305A3.252 3.252 0 0 1 2.98 2.54c.514-.395.87-.63 1.107-.75.235-.118.512-.237.868-.316.67-.237 1.343-.435 2.055-.435.512 0 1.026.08 1.54.198.513.119.908.237 1.185.277.316.079.593.158.868.198.277.077.91.314 1.818.67.237.04.672.198 1.303.396a20.28 20.28 0 0 0 1.778.474l1.066.355c.514.158.91.237 1.186.237.356-.04.673-.119.908-.196.237-.119.435-.277.633-.514.237-.435.356-.673.356-.752 0-.196-.04-.356-.08-.473a1.886 1.886 0 0 1-.197-.395L18.623.84c-.238-.119-.473-.238-.75-.275-.237-.12-.475-.198-.712-.317h.95c.274 0 .63.04 1.105.119.514.079.987.315 1.422.67.514.198.87.475 1.145.83.277.355.435.632.514.83.119.197.198.474.237.79.04.315.08.552.08.671 0 .158 0 .316-.08.514 0 .198-.079.554-.197 1.027-.12.514-.356.987-.71 1.5-.357.515-.752.87-1.147 1.108a5.51 5.51 0 0 1-1.343.512l-1.145.12h-.712c.198.75.316 1.58.356 2.568.04.987.079 1.855.118 2.686l-.276-.238 2.646 2.37-2.607 2.331.237-.158v6.927c.139-.106.27-.216.396-.33.433-.395.789-.712 1.066-.988a9.87 9.87 0 0 0 .947-1.106c.356-.514.712-.947.989-1.343l.79-1.105-.04.828v.673c0 .316-.04.552-.04.75-.08.197-.08.395-.158.593 0 .237-.078.472-.196.75-.119.276-.198.474-.238.671a7.04 7.04 0 0 1-.395.83c-.198.395-.514.87-.87 1.421a8.685 8.685 0 0 1-1.106 1.383c-.355.356-.828.711-1.342 1.067-.554.356-1.027.594-1.383.791-.395.196-.83.394-1.303.552-.475.158-.87.277-1.186.356-.315.08-.71.119-1.185.119-.237.04-.475.079-.75.079h-.593a9.5 9.5 0 0 1-1.58-.158 8.809 8.809 0 0 1-2.33-.752c-.83-.393-1.503-.75-2.015-1.105-.514-.356-.95-.673-1.264-.95A9.96 9.96 0 0 1 2.9 27.308c-.393-.472-.71-.868-.907-1.184-.198-.317-.435-.75-.673-1.264-.237-.514-.433-1.026-.512-1.501C.689 22.883.53 22.29.412 21.62l-.079-2.174.119-2.013c.119-.83.356-1.58.631-2.252.316-.671.593-1.225.87-1.58.277-.357.514-.71.71-.948a12.362 12.362 0 0 1 1.58-1.62c.514-.435.95-.79 1.226-.988.317-.236.71-.473 1.185-.75.473-.277.829-.514 1.105-.633.277-.158.594-.235 1.029-.316l.789-.117-.751.591c-.513.396-.908.83-1.304 1.185-.433.396-.75.791-1.026 1.226-.277.433-.475.908-.673 1.422l7.94-3.16v11.14L7.05 24.03l.275.315.554.514c.356.316.633.554.83.67.236.12.513.277.79.436.277.158.632.316 1.067.435.434.118.869.237 1.383.316.512.08.987.119 1.422.119.198 0 .63-.04 1.264-.08a7.73 7.73 0 0 0 1.975-.632c.236-.11.46-.233.67-.366v-7.258l.238.158-2.765-2.331 2.528-2.198V8.939h-.396zm7.136-1.746l-.069-.41-.171-.343-.307-.24c-.17-.136-.273-.205-.308-.273l-.171-.41 5.643-4.241V25.35l.958.89c.103.034.273.069.48.171l.342-.07.751-.546.24.206-4.72 3.864c-.102.034-.239.136-.445.24l-.41-.069a13.135 13.135 0 0 1-.582-.478 18.819 18.819 0 0 1-1.026-.959c-.445-.41-.82-.786-1.196-1.128-.104-.035-.206-.068-.343-.137l-.341.102-.616.412-.24-.274 2.531-2.053V7.193zm4.706 8.37l-.054-.676 4.856-3.967 3.728 3.9 1.54-1.027.238.308-1.778 1.437V27.85c-.102.65-.239 1.3-.342 1.983-.103.65-.376 1.3-.752 1.915-.377.616-.718 1.096-.992 1.402-.24.308-.65.616-1.163.992-.512.343-.924.582-1.23.686-.274.102-.617.17-.993.273a6.488 6.488 0 0 1-1.163.102h-2.6c.377-.171.72-.308 1.027-.48.308-.136.581-.273.855-.444.239-.17.445-.307.616-.41.137-.103.341-.341.582-.65.239-.308.512-1.234.75-1.78.207-.548.378-.41.446-.58.069-.17.171-.479.206-.854l.17-1.37v-11.32l-.103-.41-.204-.375-.343-.377-1.656-1.889-1.64 1.299zm19.15-3.612c.17-.104.306-.137.306-.171.07-.035.104-.035.206-.035l.24.07.136.067c.034.034.104.069.104.137.067.069.306.48.786 1.197.444.719.89 1.403 1.3 2.121.375.684.649 1.162.82 1.437.137.273.204.478.204.649l-.067.308c0 .033-.102.137-.274.308-1.3.82-2.428 1.54-3.351 2.154-.924.581-1.812 1.198-2.702 1.812a4.232 4.232 0 0 1-.547.48c-.07.136-.102.308-.102.547 0 .239.033.41.102.547l.41.512 2.633 2.429.308.07.308-.035 3.864-2.976.274.273-6.977 5.44-.41.238-.239.102h-.273l-.104-.136-.274-.205-4.07-3.557-1.402 1.196v-.478l1.402-1.23v-9.475l7.389-3.796zm-2.702 9.61c.273-.17.581-.342.922-.548.343-.204.616-.41.855-.547l1.198-.751.137-.24v-.307c0-.035-.104-.171-.274-.445l-2.36-3.9-.309-.512-.239-.068-.102.17v6.943l.035.137.137.067zM79.2 7.323v.142c-.22-.008-.396-.033-.544-.033-.311 0-.519-.035-.69-.07-.173-.034-.415-.138-.658-.241a3.228 3.228 0 0 1-.758-.414c-.242-.173-.346-.242-.38-.242l-.898-.483-1.277 1.104-.38-.31 4.212-4.317.173-.206a.585.585 0 0 1 .206-.207h.312c.104.104.277.242.517.38.242.137.587.31.967.552.243.104.483.173.795.243.31.067.586.102.828.102.345 0 .656-.035.897-.137.242-.104.45-.208.588-.311.138-.104.31-.243.517-.449.242-.207.346-.346.38-.38l.207-.518.242.449.104.517.069.727c0 .448-.07.792-.173 1.069-.104.31-.208.483-.277.587-.067.103-.206.242-.344.484-.173.24-.346.448-.485.621a5.537 5.537 0 0 1-.76.621c-.344.243-.69.38-1.069.483-.378.104-.69.208-.863.242-.143.048-.287.08-.42.094L79.2 7.324zm.588 13.216l-.588-.978V7.466c.422.002.699.002.872-.033l.166-.01.002 22.575-.452-9.458zM71.12 6.13l8.08 13.432v10.436c0 .038.702.074.852.074.112.038.188 0 .188-.074 0 .3 0 .45-.038.488l-.188.188-.264.15h-.3a.534.534 0 0 1-.262-.076.44.44 0 0 1-.187-.188c-.188-.112-.338-.224-.45-.412-.114-.188-.264-.413-.376-.6L66.766 9.246l-.337-.526-.188-.15-.15-.076c-.074 0-.15.15-.186.414V23.58l.186.262.451.188c.386 0 1.613.64 1.875.752.262.15.488.3.676.412.188.113.376.225.488.301l.525.376c.112.186.226.3.338.3.112.074.224.074.338.074.188-.112.376-.188.488-.224.112-.076.225-.188.337-.302.112-.112.226-.224.264-.3l.224-.262.376.224-4.991 5.067c-.114.038-.188.076-.302.112a.615.615 0 0 1-.186-.074.636.636 0 0 1-.226-.112l-.6-.414c-.187-.15.693-.3.505-.412-.188-.113-.414-.263-.676-.375a3.78 3.78 0 0 0-.711-.226c-.226-.038-.452-.038-.714-.038-.264 0-.526.038-.863.114a2.643 2.643 0 0 0-.94.412c-.261.187-.487.525-.6.975-.037.302-.075.526-.075.676l.076.413c.038.188.15.45.375.714.262.262.6.524 1.052.75l.9.413.675.188h-1.54c-.487 0-.899-.038-1.162-.114-.262-.074-.638-.224-1.126-.488-.487-.262-.901-.563-1.127-.825-.262-.3-.486-.526-.6-.676a4.249 4.249 0 0 1-.3-.563 4.08 4.08 0 0 1-.263-.712 2.561 2.561 0 0 1-.112-.676v-1.239c.038-.487.188-.937.414-1.313.224-.375.411-.637.563-.825.186-.188.412-.414.712-.676.3-.263.563-.451.787-.6.264-.15.64-.337 1.127-.525.488-.188.976-.338 1.426-.376a4.94 4.94 0 0 1 .88-.077c.187 0 .04-.449.079-.636v-6.005l-.3-.225a.701.701 0 0 0-.414-.15c-.3 0-.6.076-.863.113-.262.037-.488.15-.638.3-.188.15-.3.262-.3.338-.076.112-.076.262-.076.488v.338c0 .038.038.112.076.225a.99.99 0 0 0 .15.187l.3.451-.75-.038-.525-.226a2.959 2.959 0 0 1-.752-.524c-.187-.225-.337-.413-.45-.525a2.868 2.868 0 0 1-.337-.602c-.112-.262-.15-.45-.188-.637-.038-.188-.038-.45-.038-.788v-.975a1.81 1.81 0 0 1 .302-.79c.15-.261.3-.411.412-.487.112-.112.263-.224.45-.374a4.85 4.85 0 0 1 .525-.452c.15-.112.3-.225.488-.3.188-.075.375-.15.639-.225.262-.074.638-.188 1.125-.224l1.164-.114V7.257l-.262-.452a1.718 1.718 0 0 0-.414-.487c-.188-.15-.338-.3-.488-.45a1.264 1.264 0 0 0-.563-.262 2.017 2.017 0 0 0-.938-.076c-.263.038-.487.15-.675.338-.226.188-.376.338-.452.45l-.224.45-.263.375c-.037-.188-.112-.376-.112-.638-.075-.262-.075-.45-.075-.561 0-.264.037-.526.075-.714.037-.226.112-.451.15-.675.075-.264.15-.488.263-.676.112-.226.336-.563.638-.975.338-.452.825-.826 1.5-1.165a4.776 4.776 0 0 1 2.102-.488c.487 0 .863.038 1.089.076.225.074.525.225.937.412.414.188.752.413.976.601.263.188.525.45.863.788.338.337.714.789 1.051 1.35.338.564.714 1.128 1.014 1.652zm19.304 5.821c.171-.104.308-.137.308-.171.07-.035.102-.035.206-.035l.239.07.137.067c.034.034.102.069.102.137.07.069.308.48.787 1.197.444.719.889 1.403 1.299 2.121.377.684.65 1.162.822 1.437.137.273.204.478.204.649l-.067.308c0 .033-.104.137-.275.308-1.299.82-2.427 1.54-3.352 2.154-.922.581-1.812 1.198-2.702 1.812-.137.137-.306.308-.545.48-.07.136-.104.308-.104.547 0 .239.034.41.104.547l.408.512 2.635 2.429.308.07.306-.035 3.866-2.976.273.273-6.976 5.44-.412.238-.239.102h-.273l-.102-.136-.274-.205-4.07-3.557-1.402 1.196v-.478l1.402-1.23v-9.475l7.387-3.796zm-2.702 9.61c.273-.17.581-.342.924-.548.341-.204.615-.41.855-.547l1.196-.751.137-.24v-.307c0-.035-.102-.171-.273-.445l-2.36-3.9-.308-.512-.239-.068-.102.17v6.943l.035.137.135.067zM127.429 4.8c0-.355.038-.63.076-.826.038-.196.153-.393.267-.55a5.68 5.68 0 0 1 .344-.51c.114-.196.305-.394.496-.63.192-.274.383-.47.536-.588.191-.118.382-.275.573-.393.191-.157.458-.274.801-.392.344-.117.573-.197.765-.236.19-.04.46-.04.802-.04.496 0 .956.08 1.414.196.496.159.955.434 1.413.826.459.392.763.824.954 1.295.192.51.269.905.307 1.18.038.273.038.628.038 1.02v22.425l.229.352c.267.119.535.196.802.275.267.08.574.12.84.12h.497c.153-.04.229-.199.229-.395-.038-.196-.038-.352-.038-.47V.99h.649c0 .353 0 .628-.038.904v.902c0 .59 0 .983.038 1.218l.04.275.266-.04c.612-.43 1.26-.942 1.948-1.453a16.397 16.397 0 0 0 1.91-1.688l.268-.276c.153-.117.267-.156.305-.156.191.119.344.236.498.354.19.117.61.51 1.298 1.139.687.627 1.107 1.021 1.298 1.178l.23.196.268.156c.191-.117.305-.235.42-.275l1.183-.942.307.314-1.53 1.218-.228.353-.038.51V25.77l-.154.982a3.337 3.337 0 0 1-.458 1.218c-.229.392-.573.746-1.069 1.099-.496.354-.956.59-1.414.669-.496.077-.916.117-1.26.156h-.916c-.345 0-.727-.04-1.11-.156-.38-.119-.762-.198-1.144-.315-.383-.117-.84-.235-1.414-.432a17.588 17.588 0 0 0-1.298-.393c-.345-.078-.612-.157-.803-.196-.191-.04-.535-.117-.993-.117-.458-.08-.84-.08-1.108-.12-.267-.039-.573-.039-.84-.039-.344 0-.65 0-.918.04-.305 0-.687.04-1.145.119-.458.117-.764.156-.878.235-.153 0-.344.196-.611.432-.269.275-.46.588-.498.863-.038.315-.076.63-.076.905 0 .156.038.352.076.549.038.196.191.431.42.627.267.198.536.355.84.472.307.118.612.158.879.158.19 0 .46-.04.842-.08.382-.039.687-.078.878-.078.42 0 .956-.078 1.605-.234.649-.159.992-.238 1.03-.238l3.247-.509c1.032-.158 2.1-.275 3.132-.433h.727c.191 0 .42.04.687.079.305.079.573.158.803.236.229.118.535.275.916.51.42.275.802.628 1.146 1.1.383.51.612.904.65 1.257.037.354.075.627.075.902 0 .159 0 .355-.038.55-.037.197-.037.472-.113.747 0 .313-.153.667-.345 1.022-.19.392-.382.667-.535.784-.19.158-.38.315-.65.51-.266.197-.495.395-.686.512-.191.156-.42.275-.65.354l-1.031.196-.382.038c.115-.157.268-.313.382-.51.153-.195.267-.354.344-.51.114-.157.192-.275.23-.394.075-.117.113-.236.151-.392v-.471c0-.157 0-.275-.076-.392 0-.12-.19-.315-.535-.55-.343-.236-.801-.355-1.374-.355a4.29 4.29 0 0 0-.956.119c-.343.079-.65.196-.954.235l-2.828.511c-.19.04-.573.119-1.184.236-.612.117-1.145.235-1.605.275-.458.077-.8.117-1.07.156H132.7c-.42 0-.802 0-1.069-.04a7.741 7.741 0 0 1-.918-.156c-.343-.079-.61-.156-.878-.235-.267-.08-.534-.236-.84-.472-.305-.275-.534-.51-.65-.706-.153-.236-.304-.511-.458-.786a7.244 7.244 0 0 1-.42-.982c-.153-.353-.267-.747-.267-1.1 0-.314 0-.59.038-.825 0-.236.038-.588.152-1.06.115-.51.306-.981.65-1.413.343-.432.688-.746.993-.943.306-.196.573-.354.802-.47l.687-.395.382-.313v-10.17l-.151-.472c-.04-.08-.116-.119-.191-.158-.078-.04-.154-.04-.192-.04-.153-.038-.344 0-.573.04-.267 0-.496.158-.764.354-.267.196-.381.432-.381.707 0 .196.038.392.076.588.076.198.151.394.267.51.115.159.19.276.229.355l-.534-.119c-.191-.04-.42-.156-.689-.314a2.474 2.474 0 0 1-.8-.864c-.27-.431-.422-.784-.46-1.138l-.114-.903c0-.433.076-.865.229-1.336.191-.511.382-.864.611-1.06.267-.196.458-.354.65-.471.19-.119.458-.275.762-.394.498-.117.918-.234 1.3-.352.42-.12.65-.276.687-.393l.038-.431V5.388c-.038-.156-.038-.314-.075-.51 0-.197-.076-.432-.192-.707a1.063 1.063 0 0 0-.573-.589l-.611-.118c-.191 0-.38 0-.534.04-.191 0-.344.039-.498.118-.19.117-.305.196-.38.313-.078.119-.154.236-.191.275l-.42.59zm12.071 8.206c.076.119.267.236.574.392.342.159.649.238.954.238.344 0 .688-.04.993-.159.345-.117.536-.196.574-.313.075-.118.113-.275.153-.393 0-.117 0-.276.038-.393V6.881l-.078-.471-.113-.236c-.038-.117-.116-.196-.154-.314l-1.718-1.57c-.153 0-.307 0-.458-.04-.04 0-.191.117-.382.314-.23.236-.383.432-.42.589l-.192.667v6.637l.23.55zm3.286 2.12V13.91c-.42.119-.727.236-.994.315a2.823 2.823 0 0 1-1.605 0c-.267-.08-.496-.196-.764-.315-.038 0-.114.08-.152.275v1.925c.038.196.114.275.152.275.23-.119.497-.196.764-.275.307-.117.574-.157.803-.157.267 0 .573.04.878.157.307.117.611.196.918.275v-1.257zm0 1.965c-.42-.119-.727-.236-.994-.315a2.883 2.883 0 0 0-.802-.117c-.267 0-.536.04-.803.117-.267.08-.496.196-.764.315-.076.117-.114.235-.152.315v10.759l.038.394c.038.077.114.117.23.117h.344l.84-.117c.114 0 .267-.119.458-.236a5.46 5.46 0 0 1 .573-.433c.191-.117.343-.353.534-.668.191-.352.307-.784.345-1.296.075-.51.115-.864.153-.98v-7.855zm16.043-.178c-.324-.506-.83-.974-1.443-1.516-.613-.504-1.153-.974-1.66-1.405l-.215-.073-.145.107-.07.145v9.703c0 .182 0 .327.07.434 0 .072.072.145.145.217.036.071.109.144.143.18l2.96 2.742.288.036.216-.289v-9.45a2.194 2.194 0 0 0-.144-.615l-.145-.216zm-7.792-1.732l.289-.216 6.493-3.284c.11-.034.18-.107.289-.143.108-.036.18-.072.288-.072.217.108.433.18.65.252l3.896 3.536.145.143c.072.073.143.109.18.109.145-.073.288-.144.433-.252l.758-.65h.395v.18l-1.08 1.046c-.146.11-.182.145-.218.216v9.308c-.036.252-.109.397-.143.47-.037.072-.11.107-.182.143-.036.036-.36.217-.901.542-.542.325-1.443.829-2.633 1.514a40.058 40.058 0 0 1-2.778 1.48 61.47 61.47 0 0 0-1.119.54c-.072.037-.145.073-.252.073a3.802 3.802 0 0 1-.542-.252c-.54-.542-1.117-1.155-1.803-1.768a11.871 11.871 0 0 0-1.949-1.516 1.087 1.087 0 0 1-.36-.18 1.59 1.59 0 0 1-.36.18l-.687.614-.288-.29 1.01-.9.217-.614v-8.983c-.036-.035-.036-.07-.036-.143v-.289c0-.217.036-.397.109-.542l.18-.252zm15.326-.395l3.796-3.282c.033-.035.102-.07.137-.104.067-.035.136-.035.204-.035.102.07.206.104.273.139l1.882 2.359.204.171.172.068c.034 0 .171-.068.342-.204l1.984-2.088c.033-.033.102-.102.205-.137a.563.563 0 0 1 .308-.102c.069 0 .273.07.581.239.341.171.684.308 1.027.445.17 0 .306-.033.445-.102.17-.07.34-.137.58-.206.24-.102.41-.205.514-.376h.306c0 .239 0 .445-.033.684 0 .239-.034.547-.103.89a8.496 8.496 0 0 1-.41 1.06c-.205.376-.479.685-.787.923-.342.274-.683.513-1.094.684-.41.172-.787.24-1.06.24-.24 0-.411 0-.583-.034a2.063 2.063 0 0 1-.614-.24c-.24-.172-.445-.307-.616-.41l-.41-.41-.137-.172-.137-.035-.206.171V25.6L174.468 27c.034 0 .136.035.273.137.137-.033.239-.068.343-.102l.957-.753h.41c-.581.581-1.198 1.232-1.916 1.949-.718.718-1.333 1.163-1.778 1.404-.48.239-.786.41-.957.478a.922.922 0 0 1-.343-.137l-.273-.24-2.154-2.085c-.104-.104-.206-.171-.308-.274-.104-.103-.24-.136-.41-.136-.104 0-.24.067-.41.17-.172.136-.241.205-.276.24l-.34.308-.24-.275 1.435-1.231.241-.512c.035-.103.035-.206.068-.376 0-.171 0-.343.034-.514v-8.453l-.067-.478-.994-1.334c-.067-.137-.137-.205-.17-.205h-.308l-.786.58-.171.139-.206-.308.24-.206zm14.27-9.944l4.994-3.319.172-.102c.033 0 .102.07.204.206l.035.547v16.856l5.546-7.469c.138-.204.275-.273.377-.273.102.171.239.273.41.375.172.104.274.206.376.24.104.068.24.138.48.205.17.104.34.172.512.206.171.035.343.068.547.068.171 0 .343 0 .48-.033.136-.035.375-.07.683-.24l.684-.342c.137-.104.274-.24.445-.376l-.035.821c-.033.102-.067.274-.17.443-.103.206-.17.412-.24.616-.068.24-.204.48-.376.786l-.41.617-.308.308-.41.308a3.17 3.17 0 0 1-.753.341c-.341.137-.753.206-1.266.206a1.8 1.8 0 0 1-.718-.137 3.185 3.185 0 0 0-.615-.206 2.746 2.746 0 0 1-.445-.204 1.292 1.292 0 0 0-.342-.206 3.68 3.68 0 0 0-.376-.204c-.239-.104-1.1 1.344-1.1 1.344l7.124 10.239.171.206c.172.102.172.102.206.137h.205c.17-.068.308-.103.41-.137l.65-.616h.41v.136l-4.48 3.831c-.034.035-.103.07-.138.102-.067.035-.135.035-.238.035-.103-.102-.205-.137-.24-.137l-7.056-10.375v5.884l.922 1.095.24.137c.138-.07.24-.104.307-.137l.617-.48h.48l-4.55 3.832-2.702-2.292c-.103-.172-.205-.24-.24-.274l-.377.07-.751.614-.274-.273 1.71-1.403.274-.48V7.032l-.034-.751c0-.137-.07-.343-.206-.617-.033-.205-.17-.375-.41-.477l-.41-.343zm46.648 8.716l1.812-1.506c.07-.034.137-.102.206-.102.102-.07.172-.07.205-.07a1.7 1.7 0 0 0 .444.172l2.531 2.907.137.138.137.137.171-.137 1.094-.753.24.308-1.334 1.025v9.613l1.3 1.573c.137.137.205.24.24.24h.205l1.094-.683.24.272L232 29.977a.542.542 0 0 1-.307.171l-.273-.034-.308-.172-2.223-2.633c-.07-.171-.137-.239-.171-.239l-.206-.034-.274.102-.923.65-.273-.342 1.3-.957v-9.545l-1.814-2.258-1.23.855v-.443l1.983-1.539zm5.233-5.645l-3.18 2.635-2.702-2.976 3.18-2.635 2.702 2.976zm39.2 4.037c.17-.104.307-.137.307-.171.069-.035.102-.035.205-.035l.24.07.136.067c.035.034.102.069.102.137.07.069.308.48.788 1.197.445.719.888 1.403 1.3 2.121.376.684.65 1.162.82 1.437.137.273.205.478.205.649l-.068.308c0 .033-.102.137-.273.308-1.3.82-2.429 1.54-3.353 2.154-.923.581-1.813 1.198-2.7 1.812-.138.137-.309.308-.548.48-.07.136-.104.308-.104.547 0 .239.035.41.104.547l.41.512 2.633 2.429.308.07.309-.035 3.863-2.976.274.273-6.976 5.44-.41.238-.241.102h-.274l-.102-.136-.273-.205-4.07-3.557-1.402 1.196v-.478l1.402-1.23v-9.475l7.388-3.796zm-2.702 9.61c.273-.17.58-.342.923-.548.342-.204.616-.41.855-.547l1.196-.751.137-.24v-.307c0-.035-.102-.171-.274-.445l-2.36-3.9-.306-.512-.24-.068-.103.17v6.943l.035.137.137.067zm9.034-6.898c.539-.254 1.078-.473 1.654-.726.575-.254 1.114-.546 1.653-.836a44.5 44.5 0 0 0 1.727-.98c.611-.399 1.222-.8 1.868-1.198l.648.471c.252.181.504.328.756.51.394.18.719.29 1.041.29.325 0 .612-.037.864-.146.252-.108.504-.217.684-.362.18-.147.323-.328.431-.546l.25-.436c.037.108.11.253.146.364.034.109.07.254.07.362v.582c0 .29-.036.544-.106.763-.073.217-.216.544-.396.944l-.684 1.125-.682.872-.432.473c-.036.036-.108.145-.215.29v.328c0 .036.07.145.18.326l2.265 1.997.143.22v5.99l-.143.292-.289.181-2.733 1.417c-.573.29-1.221.727-1.905 1.198-.718.473-1.259.799-1.618 1.018l-.18.109-.215-.074-.287-.29a5.702 5.702 0 0 1-.468-.508l-.54-.364c-.216-.109-.467-.145-.755-.145-.432-.072-.718-.036-.827 0-.18.036-.36.109-.575.29l-.323.473a1.376 1.376 0 0 0-.036.654c.143.218.252.399.323.508l.395.436.252.218.216.145-.575-.073c-.109 0-.288-.108-.539-.253l-.72-.437-.539-.471-.395-.763a4.96 4.96 0 0 1-.216-.727c-.036-.217-.036-.509-.036-.908 0-.29.036-.545.072-.763.071-.217.18-.472.287-.726.145-.29.252-.508.36-.654.108-.182.251-.363.396-.508l2.23-2.361.07-.181-.07-.181-2.302-2.072-.18-.18v-4.977zm6.939 5.703c-.18-.145-.323-.292-.503-.437-.18-.181-.288-.254-.395-.29h-.253l-1.402 1.272-3.738 3.704-.11.471c.54-.326.935-.58 1.26-.762.323-.182.611-.327.827-.363.216-.072.466-.109.755-.109.288 0 .647.073 1.115.182.466.108.826.217 1.005.326.216.11.468.328.72.581l.97 1.272.432.58v-5.847l-.683-.58zm-1.869-1.635c.18.109.323.254.503.363h.215l.289-.109 3.738-3.704.11-.473c-.396.181-.828.4-1.225.582-.323.072-.61.109-.862.109a3.3 3.3 0 0 1-1.043-.145c-.323-.11-.575-.182-.754-.29-.18-.11-.325-.22-.432-.292-.109-.109-.252-.218-.396-.363-.143-.145-.324-.327-.504-.581l-.466-.582v4.577l.827.908zM98.14 7.464l-.343.722c-.075.114-.151.19-.151.265-.076.038-.114.114-.114.228-.077.113-.077.227-.153.34 0 .116-.038.192-.038.268 0 .303.038.568.152.833.115.23.266.495.571.76l.648.57c.19.152.496.38.952.644.419.267.724.457.877.608l.456.455c.153.19.267.38.38.57.116.19.23.493.268.836l.075.568v9.679c.116.151.267.34.459.606.189.227.494.494.914.76.38.265.761.532 1.104.76h.343a.653.653 0 0 1 .305-.19l.189-.23.115-.265v-10.17l-.115-.304-.152-.23-.914-.87-.152-.268c0-.038 0-.151.038-.265l.152-.19 3.01-2.466c.114-.038.265-.152.494-.265h.23l.227.151 2.781 2.429c.038.076.152.19.267.379.038.076 0 .19-.038.341l-.343.343a3.891 3.891 0 0 0-.647.53c-.115.114-.153.23-.191.304l-.038.229v8.653l.076.417.229.341 2.552 2.164h.648l.151-.114V16.004l-.076-.265-.229-.191-.723-.644c-.114-.152-.152-.266-.152-.303 0-.116.038-.192.076-.267l.152-.152 3.313-2.96.305.039.305.19 2.97 2.39.343-.076.267-.19.953-.721.267.227-2.666 2.24a1.956 1.956 0 0 0-.343.266.584.584 0 0 0-.23.304v8.919c-.113.34-.19.53-.266.644a.819.819 0 0 1-.305.19.614.614 0 0 0-.227.115L110.1 29.97c-.114.076-.19.115-.267.115-.038.076-.152.076-.267.076l-.305-.115-.303-.227-3.048-2.467a.91.91 0 0 1-.267-.265.43.43 0 0 0-.304-.114c-.115 0-.229.076-.382.19-.113.113-.343.265-.647.454-.266.152-.724.457-1.295.911-.572.455-1.104.874-1.562 1.29-.076.038-.228.078-.419.152a1.169 1.169 0 0 0-.305-.151l-.303-.266-2.668-2.239-.38-.152-.267-.075-.23.113-1.141.722-.267-.305 1.524-1.025.152-.303v-9.108c0-.076-.038-.228-.076-.457-.038-.227-.191-.492-.456-.795-.267-.304-.458-.57-.648-.76a5.774 5.774 0 0 0-.685-.72 2.628 2.628 0 0 1-.648-.684c-.115-.19-.229-.34-.343-.532a1.309 1.309 0 0 1-.229-.53c-.038-.19-.075-.57-.075-1.14s.075-1.024.189-1.327a3.01 3.01 0 0 1 .419-.684c.153-.152.344-.341.571-.608.191-.227.38-.417.572-.53.153-.114.456-.304.877-.533a3.762 3.762 0 0 1 1.522-.417zm124.12 17.962c-.151.115-.31.227-.474.331l.474-.306v-.025zm-12.918-10.087c-.039.277-.079.672-.079 1.105 0 .593.04 1.068.04 1.462 0 .593.04 1.067.119 1.502.118.434.237.948.354 1.46.158.514.435 1.108.83 1.778l.633 1.028c1.066-.593 1.66-.91 1.699-.949l.038-10.388-3.082 1.342c-.156.277-.275.475-.314.673-.08.197-.158.552-.238.987zm12.444-1.211l.198-.172-.198.172zm-.396-5.189c-.197 0-.395-.04-.672-.079-.275-.08-.63-.158-1.066-.237a53.844 53.844 0 0 1-1.264-.238c-.395-.117-.908-.235-1.58-.433l-3.12-.949c-.712-.198-1.146-.394-1.423-.433a6.361 6.361 0 0 0-.828-.198c-.277-.04-.593-.119-.87-.158-.277-.04-.514-.08-.673-.08-.118 0-.275.04-.472.08-.198.04-.435.158-.633.277-.198.158-.356.275-.475.393l-.354.356a1.336 1.336 0 0 0-.237.475c-.04.158 0 .435.04.83l.158.513.118.316.157.356-.908-.356a1.44 1.44 0 0 1-.435-.395c-.119-.119-.237-.396-.433-.75-.356-.554-.515-1.186-.515-1.897 0-.435.04-.79.08-1.066s.197-.711.435-1.305a3.24 3.24 0 0 1 1.066-1.422c.514-.395.868-.63 1.105-.75.237-.118.514-.237.868-.316.673-.237 1.345-.435 2.055-.435.514 0 1.028.08 1.54.198.515.119.91.237 1.187.277.315.079.592.158.868.198.277.077.91.314 1.818.67.237.04.672.198 1.303.396.633.197 1.224.356 1.778.474l1.066.355c.514.158.91.237 1.186.237.355-.04.671-.119.908-.196.238-.119.435-.277.633-.514.236-.435.354-.673.354-.752a1.42 1.42 0 0 0-.079-.473 1.8 1.8 0 0 1-.196-.395l-.751-.672c-.238-.119-.475-.238-.75-.275-.237-.12-.475-.198-.712-.317h.948c.276 0 .632.04 1.107.119.512.079.987.315 1.422.67.512.198.868.475 1.145.83s.435.632.514.83c.119.197.196.474.237.79.04.315.078.552.078.671 0 .158 0 .316-.078.514 0 .198-.079.554-.197 1.027-.119.514-.356.987-.712 1.5-.356.515-.75.87-1.145 1.108a5.535 5.535 0 0 1-1.343.512l-1.145.12h-.712c.198.75.316 1.58.356 2.568.04.987.079 1.855.118 2.686l-.276-.238 2.646 2.37-2.607 2.331.237-.158v6.927c.137-.106.269-.216.394-.33.435-.395.791-.712 1.068-.988.275-.275.591-.631.947-1.106.356-.514.712-.947.987-1.343l.791-1.105-.04.828v.673c0 .316-.039.552-.039.75-.079.197-.079.395-.158.593 0 .237-.08.472-.198.75-.118.276-.198.474-.237.671-.08.198-.196.475-.394.83-.198.395-.514.87-.87 1.421a8.685 8.685 0 0 1-1.105 1.383c-.356.356-.83.711-1.343 1.067-.554.356-1.029.594-1.383.791-.395.196-.83.394-1.305.552-.473.158-.868.277-1.184.356-.317.08-.71.119-1.185.119-.237.04-.475.079-.751.079h-.592c-.356 0-.91-.04-1.58-.158a8.818 8.818 0 0 1-2.332-.752c-.828-.393-1.5-.75-2.013-1.105-.514-.356-.95-.673-1.265-.95-.355-.314-.71-.71-1.067-1.145-.395-.472-.711-.868-.907-1.184-.198-.317-.435-.75-.673-1.264-.237-.514-.435-1.026-.514-1.501-.118-.475-.277-1.068-.394-1.738l-.079-2.174.119-2.013c.119-.83.354-1.58.631-2.252.316-.671.593-1.225.87-1.58.275-.357.512-.71.71-.948a12.361 12.361 0 0 1 1.58-1.62c.514-.435.948-.79 1.225-.988.316-.236.711-.473 1.186-.75.473-.277.829-.514 1.105-.633.277-.158.594-.235 1.027-.316l.79-.117-.75.591c-.513.396-.908.83-1.304 1.185-.435.396-.751.791-1.026 1.226-.277.433-.475.908-.673 1.422l7.94-3.16v11.14l-6.715 3.397.277.315.553.514c.356.316.631.554.829.67.237.12.514.277.79.436a4.57 4.57 0 0 0 1.067.435c.435.118.87.237 1.382.316.514.08.989.119 1.422.119.198 0 .633-.04 1.266-.08a7.73 7.73 0 0 0 1.975-.632c.236-.11.46-.233.67-.366v-7.258l.238.158-2.766-2.331 2.529-2.198V8.939h-.396z" fill="#FFF" fill-rule="evenodd"/></svg>