<svg xmlns="http://www.w3.org/2000/svg" viewBox="0 0 103 37.44"><defs><style>.cls-1{stroke:#000;stroke-miterlimit:10;stroke-width:3px}.cls-2{fill:#fff}.cls-2,.cls-3{fill-rule:evenodd}</style></defs><title>logo_better_business_bureaua_Black</title><rect class="cls-1" x="1.5" y="1.5" width="100" height="34.44" rx="4.77" ry="4.77"/><path class="cls-2" d="M205 64.78h-30.28a4.77 4.77 0 0 0-4.77 4.77v24.9a4.77 4.77 0 0 0 4.77 4.77H205V64.78z" transform="translate(-168.45 -63.28)"/><path class="cls-3" d="M186.57 75.49l-1.49 2.05a2.78 2.78 0 0 0 .5 3.59l2.76 2a.7.7 0 0 1 .29 1l.4.3 1.4-1.94a2.62 2.62 0 0 0-.49-3.76l-2.78-2a.7.7 0 0 1-.18-1l-.4-.29zM189 66.42l-2.32 3.21a4 4 0 0 0 .79 5.16l3.81 2.8a2.15 2.15 0 0 1 .31 2.75l.32.24 2.63-3.7a3.89 3.89 0 0 0-.74-5.46l-4.08-3a1.24 1.24 0 0 1-.38-1.79l-.34-.21zM182.84 86.53h3.07l.55 1.86h5l.54-1.86h3.07l-.4-1.37h-11.42l-.4 1.37zM198.71 96.09a.23.23 0 0 0 0-.08.16.16 0 0 0 0-.06l-.07-.05h-.27.17l.09.05.06-.07-.1-.06h-.31v.06a.18.18 0 0 0 0 .08.21.21 0 0 0 0 .07v.06h.33a.11.11 0 0 1 0 .1.2.2 0 0 1-.12 0h-.11l-.1-.07-.06.06.11.08a.36.36 0 0 0 .15 0h.19a.19.19 0 0 0 .05-.07.2.2 0 0 0 0-.08zM199.53 96.29v-.76h-.1l-.19.46-.18-.46h-.1v.76h.08v-.47l.21.49.21-.49v.47h.08zM185.49 94.18a1.56 1.56 0 0 0-1.2-1.41 1.59 1.59 0 0 0 .87-1.42c0-1.27-1-1.79-2.18-1.79h-3.18v6.76h3.15c1.34-.01 2.76-.6 2.54-2.14zm-4.25-3.33h1.65a.72.72 0 1 1 .06 1.44h-1.72v-1.44zm1.84 4.15h-1.84v-1.51h1.84c1.35 0 1.27 1.51 0 1.51zM191.79 94.18a1.56 1.56 0 0 0-1.2-1.41 1.59 1.59 0 0 0 .87-1.42c0-1.27-1-1.79-2.18-1.79h-3.18v6.76h3.15c1.35-.01 2.75-.6 2.54-2.14zm-4.25-3.33h1.65a.72.72 0 1 1 .06 1.44h-1.72v-1.44zm1.84 4.15h-1.84v-1.51h1.84c1.36 0 1.28 1.51 0 1.51zM198.1 94.18a1.56 1.56 0 0 0-1.2-1.41 1.59 1.59 0 0 0 .87-1.42c0-1.27-1-1.79-2.18-1.79h-3.18v6.76h3.15c1.35-.01 2.77-.6 2.54-2.14zm-4.25-3.33h1.65a.72.72 0 1 1 .06 1.44h-1.72v-1.44zm1.84 4.15h-1.84v-1.51h1.84c1.31 0 1.31 1.51 0 1.51z" transform="translate(-168.45 -63.28)"/><path class="cls-2" d="M220.67 78a3.42 3.42 0 0 0-1.56-1 3.14 3.14 0 0 0-.83-.1 2.87 2.87 0 0 0-1.17.23 2.68 2.68 0 0 0-.91.65 3 3 0 0 0-.59 1 3.75 3.75 0 0 0-.21 1.29 4 4 0 0 0 .2 1.32 2.88 2.88 0 0 0 .58 1 2.59 2.59 0 0 0 .9.64 2.9 2.9 0 0 0 1.16.22 3.2 3.2 0 0 0 2.54-1.2l-.93-.82a2.27 2.27 0 0 1-1.58.79 1.39 1.39 0 0 1-.65-.15 1.44 1.44 0 0 1-.49-.41 1.88 1.88 0 0 1-.3-.62 2.79 2.79 0 0 1-.1-.77 2.86 2.86 0 0 1 .1-.79 1.88 1.88 0 0 1 .3-.62 1.37 1.37 0 0 1 .48-.41 1.42 1.42 0 0 1 .65-.15 2.15 2.15 0 0 1 1.5.75l.9-.87z" transform="translate(-168.45 -63.28)"/><path class="cls-2" d="M70.04 19.92v-1.21h-3.36v-1.49h2.7v-1.2h-2.7v-1.06h3.22v-1.21h-4.52v6.17h4.66z"/><path class="cls-2" d="M244.48 78.68a2.52 2.52 0 0 0-.68-1 2.62 2.62 0 0 0-1-.53 4.83 4.83 0 0 0-1.29-.16h-2v6.21h1.94a4.32 4.32 0 0 0 1.22-.18 3.1 3.1 0 0 0 1.07-.55 2.72 2.72 0 0 0 .75-1 3.18 3.18 0 0 0 .28-1.4 3.71 3.71 0 0 0-.29-1.39zm-1.21 2.21a1.58 1.58 0 0 1-.36.6 1.63 1.63 0 0 1-.62.38 2.6 2.6 0 0 1-.89.14h-.64v-3.78h.69a2 2 0 0 1 1.49.47 2 2 0 0 1 .46 1.42 2.33 2.33 0 0 1-.13.77z" transform="translate(-168.45 -63.28)"/><path class="cls-2" d="M78.84 19.92v-6.17h-1.3v6.17h1.3zM84.91 14.96v-1.21h-5.04v1.21h1.87v4.96h1.3v-4.96h1.87z"/><path class="cls-2" d="M264.85 78.68a2.51 2.51 0 0 0-.68-1 2.62 2.62 0 0 0-1-.53 4.83 4.83 0 0 0-1.29-.16h-2v6.21h1.94A4.32 4.32 0 0 0 263 83a3.1 3.1 0 0 0 1.07-.55 2.73 2.73 0 0 0 .75-1 3.18 3.18 0 0 0 .28-1.4 3.7 3.7 0 0 0-.25-1.37zm-1.21 2.21a1.58 1.58 0 0 1-.36.6 1.63 1.63 0 0 1-.62.38 2.6 2.6 0 0 1-.89.14h-.64v-3.78h.69a2 2 0 0 1 1.49.47 2 2 0 0 1 .46 1.42 2.33 2.33 0 0 1-.13.77z" transform="translate(-168.45 -63.28)"/><path class="cls-2" d="M90.4 19.92v-1.21h-3.35v-1.49h2.7v-1.2h-2.7v-1.06h3.21v-1.21h-4.52v6.17h4.66zM79.51 27.9v-1.21h-3.35V25.2h2.7V24h-2.7v-1.07h3.21v-1.21h-4.52v6.18h4.66z"/><path class="cls-2" d="M226.68 78a3.42 3.42 0 0 0-1.56-1 3.14 3.14 0 0 0-.83-.1 2.87 2.87 0 0 0-1.17.23 2.68 2.68 0 0 0-.91.65 3 3 0 0 0-.6 1 3.75 3.75 0 0 0-.21 1.29 4 4 0 0 0 .2 1.32 2.88 2.88 0 0 0 .58 1 2.58 2.58 0 0 0 .9.64 2.9 2.9 0 0 0 1.16.22 3.2 3.2 0 0 0 2.54-1.2l-.93-.82a2.27 2.27 0 0 1-1.58.79 1.39 1.39 0 0 1-.65-.15 1.44 1.44 0 0 1-.49-.41 1.88 1.88 0 0 1-.3-.62 2.79 2.79 0 0 1-.1-.77 2.86 2.86 0 0 1 .1-.79 1.88 1.88 0 0 1 .3-.62 1.37 1.37 0 0 1 .48-.41 1.42 1.42 0 0 1 .65-.15 2.15 2.15 0 0 1 1.5.75l.9-.87zM221.1 88.34a1.58 1.58 0 0 0-.63-.5 1.33 1.33 0 0 0 .49-.49 1.39 1.39 0 0 0 .18-.71 1.44 1.44 0 0 0-.54-1.21 2.34 2.34 0 0 0-1.47-.42h-2.91v6.18h2.88a3.14 3.14 0 0 0 .92-.13 2 2 0 0 0 .71-.38 1.7 1.7 0 0 0 .46-.63 2.14 2.14 0 0 0 .16-.86 1.36 1.36 0 0 0-.25-.85zm-3.64-2.2h1.61a.94.94 0 0 1 .6.15.54.54 0 0 1 .18.44.58.58 0 0 1-.16.42.76.76 0 0 1-.56.16h-1.68v-1.17zm2.37 3.65a1 1 0 0 1-.68.22h-1.68v-1.6h1.68a.76.76 0 0 1 .91.79.78.78 0 0 1-.23.59zM227.34 88.45V85h-1.27v3.47a1.8 1.8 0 0 1-.35 1.17 1.17 1.17 0 0 1-1 .42 1.15 1.15 0 0 1-1-.43 1.85 1.85 0 0 1-.34-1.18V85h-1.18v3.47a3.56 3.56 0 0 0 .19 1.2 2.48 2.48 0 0 0 .52.88 2.18 2.18 0 0 0 .81.54 2.86 2.86 0 0 0 1 .19 2.45 2.45 0 0 0 1.89-.74 3 3 0 0 0 .68-2.09zM233.17 89.31a1.63 1.63 0 0 0-.19-.83 1.68 1.68 0 0 0-.49-.54 2.5 2.5 0 0 0-.68-.33q-.38-.12-.76-.21l-.62-.16a2 2 0 0 1-.39-.15.51.51 0 0 1-.2-.18.49.49 0 0 1-.06-.25.48.48 0 0 1 0-.2.47.47 0 0 1 .15-.18.88.88 0 0 1 .28-.13 1.6 1.6 0 0 1 .43 0 1.83 1.83 0 0 1 .78.16 2.32 2.32 0 0 1 .66.47l.91-.86a3.41 3.41 0 0 0-1-.71 3.34 3.34 0 0 0-2.18-.13 2.25 2.25 0 0 0-.72.36 1.71 1.71 0 0 0-.48.57 1.6 1.6 0 0 0-.18.76 1.8 1.8 0 0 0 .14.77 1.37 1.37 0 0 0 .43.46 2.3 2.3 0 0 0 .63.34 6.62 6.62 0 0 0 .8.23q.44.1.72.19a1.8 1.8 0 0 1 .43.19.55.55 0 0 1 .2.21.58.58 0 0 1 .05.26.55.55 0 0 1-.27.51 1.69 1.69 0 0 1-.84.16 2.35 2.35 0 0 1-.87-.16 2 2 0 0 1-.75-.54l-.91.79a2.45 2.45 0 0 0 1 .82 3.43 3.43 0 0 0 1.45.3 3.9 3.9 0 0 0 1.12-.14 2.16 2.16 0 0 0 .77-.4 1.57 1.57 0 0 0 .45-.62 2.14 2.14 0 0 0 .14-.8z" transform="translate(-168.45 -63.28)"/><path class="cls-2" d="M67.01 27.9v-6.18h-1.26v6.18h1.26z"/><path class="cls-2" d="M241.92 91.18V85h-1.25V88.97a3.7 3.7 0 0 0-.2-.32l-.25-.37L238 85h-1.21v6.18H238v-2.72-.33-.39-.38-.26a3.48 3.48 0 0 0 .19.32l.25.37 2.33 3.37h1.13zM253.14 89.31a1.63 1.63 0 0 0-.19-.83 1.68 1.68 0 0 0-.49-.54 2.49 2.49 0 0 0-.68-.33q-.38-.12-.76-.21l-.62-.16a2 2 0 0 1-.39-.15.51.51 0 0 1-.2-.18.49.49 0 0 1-.06-.25.45.45 0 0 1 .2-.38.88.88 0 0 1 .28-.13 1.6 1.6 0 0 1 .43 0 1.83 1.83 0 0 1 .78.16 2.32 2.32 0 0 1 .66.47l.92-.86a3.42 3.42 0 0 0-1-.71 3.34 3.34 0 0 0-2.18-.13 2.24 2.24 0 0 0-.72.36 1.7 1.7 0 0 0-.48.57 1.6 1.6 0 0 0-.18.76 1.8 1.8 0 0 0 .15.77 1.37 1.37 0 0 0 .39.46 2.3 2.3 0 0 0 .63.34 6.62 6.62 0 0 0 .8.23q.44.1.72.19a1.82 1.82 0 0 1 .43.19.55.55 0 0 1 .2.21.58.58 0 0 1 .05.26.55.55 0 0 1-.27.51 1.69 1.69 0 0 1-.84.16 2.35 2.35 0 0 1-.87-.16 2 2 0 0 1-.75-.54l-.92.79a2.45 2.45 0 0 0 1 .82 3.42 3.42 0 0 0 1.45.3 3.9 3.9 0 0 0 1.12-.14 2.15 2.15 0 0 0 .77-.4 1.57 1.57 0 0 0 .45-.62 2.14 2.14 0 0 0 .15-.8zM258.58 89.31a1.63 1.63 0 0 0-.19-.83 1.68 1.68 0 0 0-.49-.54 2.49 2.49 0 0 0-.68-.33q-.38-.12-.76-.21l-.62-.16a2 2 0 0 1-.39-.15.5.5 0 0 1-.2-.18.49.49 0 0 1-.06-.25.45.45 0 0 1 .2-.38.88.88 0 0 1 .28-.13 1.6 1.6 0 0 1 .43 0 1.83 1.83 0 0 1 .78.16 2.33 2.33 0 0 1 .66.47l.91-.86a3.41 3.41 0 0 0-1-.71 3.34 3.34 0 0 0-2.18-.13 2.25 2.25 0 0 0-.72.36 1.71 1.71 0 0 0-.48.57 1.6 1.6 0 0 0-.18.76 1.79 1.79 0 0 0 .15.77 1.37 1.37 0 0 0 .41.51 2.3 2.3 0 0 0 .63.34 6.62 6.62 0 0 0 .8.23q.44.1.72.19a1.82 1.82 0 0 1 .43.19.56.56 0 0 1 .2.21.59.59 0 0 1 .05.26.55.55 0 0 1-.27.51 1.69 1.69 0 0 1-.84.16 2.35 2.35 0 0 1-.87-.16 2 2 0 0 1-.75-.54l-.92.79a2.45 2.45 0 0 0 1 .82 3.43 3.43 0 0 0 1.45.3 3.9 3.9 0 0 0 1.12-.14 2.15 2.15 0 0 0 .77-.4 1.57 1.57 0 0 0 .45-.62 2.13 2.13 0 0 0 .15-.8zM212.7 77h-1.26l-2.49 6.18h1.39l.51-1.38h2.38l.51 1.38h1.43zm-1.4 3.63l.42-1.12.18-.51q.09-.26.13-.43 0 .18.13.43l.19.53.42 1.12h-1.49zM231.57 80.86a2.46 2.46 0 0 0 1.09-.73 2.22 2.22 0 0 0 .13-2 1.75 1.75 0 0 0-.48-.61 2 2 0 0 0-.72-.37 3.08 3.08 0 0 0-.86-.12h-3v6.17H229V81h1.16l1.36 2.17H233zm-.87-1H229v-1.63h1.7a1.14 1.14 0 0 1 .68.18.7.7 0 0 1 .25.6.77.77 0 0 1-.93.81z" transform="translate(-168.45 -63.28)"/></svg>
