<svg xmlns="http://www.w3.org/2000/svg" viewBox="0 0 118 24.74"><defs><style>.cls-1,.cls-2{fill:#231f20;fill-rule:evenodd}.cls-2{fill:#fff}</style></defs><title>equal_housing_lenderblack</title><path class="cls-1" d="M20.82 15l16.7-9.5L53.84 15v3.34h-2.6V30.2H23.37V18.39h-2.55V15zm16.69-6l-10.74 6.3v11.89H48V15.34L37.51 9z" transform="translate(-20.82 -5.45)"/><path class="cls-1" d="M10.98 14.39v-2.91H22.1v2.91H10.98zM10.98 15.82H22.1v2.92H10.98v-2.92z"/><path class="cls-1" d="M100.08 30.2v-10h5.26c3.76 0 6.39 1.14 6.39 5.19s-2.38 4.81-6.51 4.81h-5.14z" transform="translate(-20.82 -5.45)"/><path class="cls-2" d="M102.84 22.34V28h2.25c2.13 0 3.63-.38 3.63-2.66 0-2-1.63-3-3.38-3h-2.51z" transform="translate(-20.82 -5.45)"/><path class="cls-1" d="M127.54 30.2v-10h7.27c2.76 0 3.88.89 3.88 3.17 0 1.65-.88 2.41-2.76 2.66l2.88 4.18h-3L132.93 26h-2.63v4.2h-2.76z" transform="translate(-20.82 -5.45)"/><path class="cls-2" d="M134.42 22.35h-4.13v1.52h4c1.38 0 1.75 0 1.75-.76s-.5-.76-1.63-.76z" transform="translate(-20.82 -5.45)"/><path class="cls-1" d="M64.16 14.73v10.01h2.64v-6.08l5.26 6.08h3.13V14.73h-2.63v6.21l-5.26-6.21h-3.14zM38.34 14.73v10.01h9.89v-2.15l-7.14-.13v-7.73h-2.75zM51.07 24.74h9.64v-2.15h-6.76v-2.16h5.64v-2.02h-5.64v-1.52h6.76v-2.16h-9.64v10.01zM94 14.73v10.01l9.52-.13v-2.02h-6.76v-2.16h5.76v-2.02h-5.76v-1.52h6.76v-2.16H94zM57.97 12.27l2.51-9h2.13l2.5 9h-1.95l-.55-2.03h-2.26l-.55 2.03h-1.83z"/><path class="cls-2" d="M61.49 5.2l-.75 3.54h1.63l-.88-3.54z"/><path class="cls-1" d="M64.82 14.43V12c0-2.28.75-3.55 3-3.55 2.51 0 3 1.52 3 3.67v1.9a4.57 4.57 0 0 1-.5 2.41l1.51.57-.13.63c-5.14 0-6.89-.13-6.89-3.17z" transform="translate(-20.82 -5.45)"/><path class="cls-2" d="M66.69 12.15v2.15c0 1.65.25 2.15 1.13 2.15s1.13-.38 1.13-2V12c0-1.77-.13-2-1-2-1.13 0-1.25.51-1.25 2.15z" transform="translate(-20.82 -5.45)"/><path class="cls-1" d="M115.93 15.31c0 1.39.88 2.53 2.88 2.53 1.63 0 3.13-1.14 3.13-2.53 0-2.15-4-3.17-4-4.56a.88.88 0 0 1 1-.76 1.71 1.71 0 0 1 1.5 1.27l1.25-.51c-.13-1.27-1-2.28-2.88-2.28-1.5 0-2.76.76-2.76 2.28 0 2.53 4 3.17 4 4.81 0 .63-.38.89-1.13.89a1.59 1.59 0 0 1-1.5-1.39l-1.5.25zM102.35 14.81v-2.92c0-2.41 1.13-3.42 3-3.42 2.38 0 3 .89 3 3.17v2.79c0 2.41-.63 3.42-3 3.42s-3-.89-3-3z" transform="translate(-20.82 -5.45)"/><path class="cls-2" d="M104.23 11.77v2.79c0 1.27.13 1.9 1.13 1.9.75 0 1.13-.51 1.13-2v-2.69c0-1-.13-1.9-1.13-1.9s-1.13.76-1.13 1.9z" transform="translate(-20.82 -5.45)"/><path class="cls-1" d="M132.68 14.43c0 2.66.75 3.42 3.26 3.42 1.94 0 2.51-.92 2.51-1.9V13h-2.63v1.39h.88v1c0 .76-.25 1.14-.88 1.14-1.25 0-1.38-.89-1.38-2.15v-2c0-1.52.13-2.53 1.38-2.53a1.53 1.53 0 0 1 1.5 1.52l1.25-.51c-.13-1.52-1.13-2.41-2.88-2.41-2.51 0-3 1.39-3 3.29v2.66zM109.15 8.72v5.19c0 3 .52 4 3.15 4 2 0 2.74-1.1 2.74-3.76V8.72h-1.75v5.19c0 2-.13 2.53-1.13 2.53s-1.16-.75-1.16-2.65V8.72h-1.88z" transform="translate(-20.82 -5.45)"/><path class="cls-1" d="M105.07 3.27v9h1.5V6.19l2.13 6.08h2.25v-9h-1.5v5.58l-2-5.58h-2.38z"/><path class="cls-1" d="M72.63 8.72v5.45c0 2.53.25 3.67 2.76 3.67 2.88 0 3-1.39 3-3.93V8.72h-1.75V14c0 1.77-.25 2.28-1.13 2.28s-1.13-.51-1.13-2.53V8.72h-1.75z" transform="translate(-20.82 -5.45)"/><path class="cls-1" d="M74.6 3.27v9h1.75V8.21h2.13v4.06h1.76v-9h-1.76v3.42h-2.13V3.27H74.6zM38.21 3.27v9h4.51v-1.39h-2.76V8.34h2.51V7.07h-2.51v-2.4h2.76v-1.4h-4.51zM65.91 3.27v9h4.13v-1.39h-2.63V3.27h-1.5zM102.05 3.27v9h1.63v-9h-1.63z"/></svg>
