<svg width="115" height="40" xmlns="http://www.w3.org/2000/svg" viewBox="0 0 115.75 40"><defs><style>.a{fill:#fff;}</style></defs><title>Asset 1</title><polygon class="a" points="0 0 0 9.21 5.12 9.21 5.12 30.7 0 30.7 0 39.25 27.31 39.25 27.31 30.69 22.19 30.69 22.19 9.21 27.31 9.21 27.31 0 0 0"/><path class="a" d="M28.73,9.22v8.57h3.86V30.69H28.73v8.55H50.1V30.69H46V23.28a5.34,5.34,0,0,1,5.51-5.45c2.48,0,4.4,1.21,4.4,3.91v9H52v8.55H72.84V30.83l-.06-.13H69.36V19.37c0-7.21-5.28-9.86-11.78-9.86-4.62,0-8.15,1.27-11.23,4.79a5.59,5.59,0,0,1-.77.82V9.22Z"/><path class="a" d="M90.48,9.42C81,9.42,71.6,14.09,71.59,24.71a14.84,14.84,0,0,0,1.19,6h.06v.13C75.69,37.14,83,40,90.48,40c6.07,0,14.5-1.46,16.39-10.8l.09-1H95.48c0,3.16-2.29,4.65-4.89,4.65-5,0-5.34-4.14-5.34-8.1v-.08h0c0-4,.39-8.09,5.34-8.09,3.9,0,4.56,3.38,4.7,6.59l11.53-1.27C105.58,10.14,94,9.4,91.13,9.4h-.65"/><path class="a" d="M71.59,24.72h0Z"/><path class="a" d="M106,34.53a4.87,4.87,0,1,0,4.87-4.87A4.86,4.86,0,0,0,106,34.53"/></svg>