<svg width="130" height="40" xmlns="http://www.w3.org/2000/svg" viewBox="0 0 130.61 40"><defs><style>.a{fill:#fff}</style></defs><title>Asset 1</title><path class="a" d="M60.43.53l.09 3.55h-.83c-.07-2.18-.53-2.48-3.83-2.48h-.71v12.59c0 1.72.44 2.18 2.13 2.22v.6h-3.62c-.8 0-2.03-.01-3.66-.01v-.6c1.7 0 2.13-.5 2.13-2.22V1.65h-.82c-3.39 0-3.85.3-3.9 2.48h-.85l.12-3.6h13.76M61 16.46c1.54 0 1.74-.3 1.77-2.45V3.53c0-2.15-.23-2.45-1.77-2.45V.53A26.56 26.56 0 0 0 65.45 0v7.11A4.56 4.56 0 0 1 69 5.23c2.25 0 3.48 1.42 3.48 4V14c0 2.15.23 2.45 1.77 2.45V17c-1.33 0-2.34-.09-3-.09s-1.58 0-2.84.09v-.55c1.21-.18 1.33-.41 1.35-2.45v-3.48c0-2.89-.5-3.85-2-3.85A2.36 2.36 0 0 0 65.79 8a5.61 5.61 0 0 0-.32.87 1.24 1.24 0 0 0 0 .25V14c0 2 .14 2.27 1.35 2.45V17c-1.28 0-2.22-.09-2.87-.09s-1.67 0-3 .09zM78.58 9.67a43.92 43.92 0 0 0 4.88-.32C83.18 7.13 82.34 6 80.89 6s-2.09 1.15-2.32 3.64m7.31 5.09a5.62 5.62 0 0 1-4.65 2.5c-3.19 0-5.34-2.34-5.34-5.8 0-3.69 2.22-6.23 5.43-6.23a4.11 4.11 0 0 1 3.85 2 5.51 5.51 0 0 1 .76 3.28h-7.28C78.74 14 80 16 82.11 16a4.41 4.41 0 0 0 3.44-1.88zM.08 39.06c1.86-.05 2.34-.56 2.34-2.47v-12c0-1.91-.48-2.42-2.34-2.47L0 21.44l3.94.05 6.2-.08h1.63l.1 3.74-1 .08c-.18-2.31-.61-2.57-4.27-2.57h-.85v6.91h1.09c.41 0 .79.05 1.17.05 2 0 2.49-.43 2.52-2.36h.86c-.08 1.55-.08 2.34-.08 3.1v2.62h-.81c-.1-1.83-.51-2.19-2.47-2.21H6.66l-1 .05v5.36c0 2.16.13 2.26 2.26 2.26 2.87 0 3.71-.64 4-3.1l1 .05-.58 4.27h-2l-6.23-.05-4.11.11zM26.1 37.92A5.54 5.54 0 0 1 21.78 40c-3.36 0-5.54-2.62-5.54-6.61s2.31-6.74 6-6.74a13.32 13.32 0 0 1 3.48.58l.05 3.05-1.14.08c-.46-2.29-.92-2.82-2.39-2.82-1.91 0-2.9 1.7-2.9 5 0 3.86 1.19 6 3.35 6A4 4 0 0 0 25.72 37zM32 33.54c.25 3.63 1.45 5.59 3.41 5.59s2.89-1.9 2.89-5.13c0-3.76-1.5-6.41-3.58-6.41-1.86 0-2.8 1.6-2.8 4.78a8.63 8.63 0 0 0 .08 1.17m-3.15.28v-.38c0-4.3 2.31-6.79 6.28-6.79 3.69 0 6.28 2.75 6.28 6.69S38.86 40 35 40c-3.63 0-6.07-2.44-6.2-6.18M44.47 39.11c1.7 0 2-.33 2-2.72v-5.9c0-2.36-.25-2.69-2-2.72l-.05-.58a23.45 23.45 0 0 0 4.7-.61l.13 2.29c1.45-1.63 2.57-2.21 4.12-2.21 2.47 0 3.86 1.6 3.86 4.47v5.26a4.86 4.86 0 0 0 0 .61c0 1.63.43 2.11 2 2.11l.05.61c-1.47-.05-2.59-.1-3.33-.1s-1.78.05-3.18.1l.05-.61c1.35-.2 1.5-.46 1.5-2.72v-3.86c0-3.2-.58-4.27-2.24-4.27a2.62 2.62 0 0 0-2.34 1.47 3.6 3.6 0 0 0-.39 1.27v5.41c0 2.26.15 2.52 1.5 2.72l.08.61c-1.42-.05-2.49-.1-3.2-.1s-1.83.05-3.3.1zM64.63 33.54c.25 3.63 1.45 5.59 3.41 5.59S71 37.23 71 34c0-3.76-1.5-6.41-3.58-6.41-1.86 0-2.8 1.6-2.8 4.78a8.6 8.6 0 0 0 .05 1.14m-3.15.28v-.38c0-4.3 2.31-6.79 6.28-6.79 3.69 0 6.28 2.75 6.28 6.69S71.52 40 67.68 40c-3.64 0-6.08-2.44-6.2-6.18M77.13 39.11c1.7 0 2-.33 2-2.72v-5.9c0-2.36-.25-2.69-2-2.72l-.05-.58a23.45 23.45 0 0 0 4.7-.61l.13 2.29c1.45-1.6 2.57-2.21 4.07-2.21a3.46 3.46 0 0 1 3.51 2.41c1.55-1.78 2.69-2.41 4.24-2.41 2.41 0 3.79 1.63 3.79 4.47V37c0 1.63.46 2.11 2 2.11l.05.61c-1.47-.05-2.59-.1-3.33-.1s-1.75.05-3.15.1l.05-.61c1.35-.2 1.47-.46 1.5-2.72v-3.86c0-3.15-.56-4.27-2.14-4.27a2.66 2.66 0 0 0-2.31 1.47 5.38 5.38 0 0 0-.33 1 2.26 2.26 0 0 0-.05.28v5.41c0 2.26.15 2.52 1.5 2.72l.05.61c-1.35-.05-2.36-.1-3.05-.1s-1.65.05-3 .1l.05-.61c1.35-.2 1.47-.46 1.5-2.72v-3.89c0-3.15-.56-4.27-2.14-4.27a2.62 2.62 0 0 0-2.31 1.47A3.75 3.75 0 0 0 82 31v5.41c0 2.26.15 2.52 1.5 2.72l.05.61c-1.4-.05-2.47-.1-3.18-.1s-1.83.05-3.3.1zM103.62 22.33a1.7 1.7 0 1 1 1.7 1.73 1.68 1.68 0 0 1-1.7-1.73m3.28 4.25v9.81c0 2.39.23 2.72 2 2.72l.05.61c-1.58-.05-2.72-.1-3.51-.1s-1.91.05-3.46.1l.05-.61c1.7 0 2-.33 2-2.72V30.49c0-2.36-.25-2.69-2-2.72l-.05-.58a31.47 31.47 0 0 0 4.93-.61M112.05 39.26l-.1-2.59 1.3-.05c.58 2 1 2.34 2.31 2.34 1.17 0 1.93-.61 1.93-1.53s-.53-1.53-2.14-2.62c-.81-.56-1.37-.94-1.68-1.17a4.11 4.11 0 0 1-1.4-1.81 3.87 3.87 0 0 1 3.73-5.18 13.18 13.18 0 0 1 3.46.56l.05 2.57-1.3.05c-.31-1.7-.84-2.29-2-2.29s-2 .66-2 1.6.41 1.42 1.73 2.26a26.16 26.16 0 0 1 2.77 2.06 3.46 3.46 0 0 1 1.15 2.54 4.12 4.12 0 0 1-4.35 4 10.76 10.76 0 0 1-3.46-.74M122.55 27.39c2-.15 2.8-1 3.38-3.66h1.14v3.43h3.2l-.36 1.4h-2.85v6.25c0 3.13.41 3.86 2.14 3.86a4.64 4.64 0 0 0 1.4-.23v.74a6.94 6.94 0 0 1-3.28.76 3 3 0 0 1-2.64-1.58 7 7 0 0 1-.51-3.3v-6.5h-1.63z"/></svg>