<svg width="1084" height="160" xmlns="http://www.w3.org/2000/svg">
 <!-- Created with Method Draw - http://github.com/duopixel/Method-Draw/ -->
 <g>
  <title>Layer 1</title>
 </g>
 <g>
  <title>background</title>
  <path stroke="#4cff05" id="svg_3" d="m96.310042,4.369992l0,14.991807c-37.306791,2.104113 -66.692036,24.412495 -66.692036,51.622505c0,-4.901627 8.120609,-8.882705 18.120609,-8.882705c10.005855,0 18.126463,3.981078 18.126463,8.882705c0,-4.901627 8.114754,-8.882705 18.120609,-8.882705c4.759953,0 9.086651,0.932505 12.324356,2.402993l0,73.094024c0,3.269744 -2.599532,5.917818 -5.796253,5.917818c-3.202576,0 -5.802108,-2.648074 -5.802108,-5.917818l0,-2.964887l-11.59836,0l0,2.964887c0,9.809232 7.798595,17.771388 17.400468,17.771388s17.394613,-7.962156 17.394613,-17.771388l0,-73.094024c3.237705,-1.476466 7.570257,-2.402993 12.330211,-2.402993c9.994145,0 18.126463,3.981078 18.126463,8.882705c0,-4.901627 8.120609,-8.882705 18.114754,-8.882705c10.017564,0 18.138173,3.981078 18.138173,8.882705c0,-27.204032 -29.3911,-49.512414 -66.703746,-51.622505l0,-14.991807l-11.604215,0z" stroke-width="1.5" fill="#4cff05"/>
  <text xml:space="preserve" text-anchor="start" font-family="Helvetica, Arial, sans-serif" font-size="204" id="svg_4" y="153.453125" x="181.5" stroke-opacity="0" stroke-width="0" stroke="#ff3e06" fill="#ff3e06">Sab</text>
  <text xml:space="preserve" text-anchor="start" font-family="Helvetica, Arial, sans-serif" font-size="204" id="svg_5" y="151.453125" x="526.5" stroke-width="0" stroke="#4cff05" fill="#4cff05">Lends</text>
 </g>
</svg>