<svg width="1084" height="160" xmlns="http://www.w3.org/2000/svg">
 <!-- Created with Method Draw - http://github.com/duopixel/Method-Draw/ -->
 <g>
  <title>Layer 1</title>
 </g>
 <g>
  <title>background</title>
  <text font-weight="normal" xml:space="preserve" text-anchor="start" font-family="Helvetica, Arial, sans-serif" font-size="140" id="svg_1" y="125.453125" x="221.5" stroke-width="0" stroke="#BBBBBB" fill="#ffffff">SabLending</text>
  <path stroke="#d32802" id="svg_2" d="m74.790702,12.369994l0,13.436587c-34.219333,1.885837 -61.172697,21.879992 -61.172697,46.26729c0,-4.393142 7.448559,-7.961231 16.620972,-7.961231c9.177784,0 16.626343,3.568089 16.626343,7.961231c0,-4.393142 7.443188,-7.961231 16.620972,-7.961231c4.366026,0 8.334652,0.835769 11.304409,2.153711l0,65.511396c0,2.930547 -2.384398,5.303916 -5.316563,5.303916c-2.937535,0 -5.321933,-2.373368 -5.321933,-5.303916l0,-2.657315l-10.638496,0l0,2.657315c0,8.791642 7.153194,15.92782 15.96043,15.92782s15.95506,-7.136178 15.95506,-15.92782l0,-65.511396c2.969757,-1.3233 6.943754,-2.153711 11.30978,-2.153711c9.167044,0 16.626343,3.568089 16.626343,7.961231c0,-4.393142 7.448559,-7.961231 16.615602,-7.961231c9.188525,0 16.637083,3.568089 16.637083,7.961231c0,-24.38194 -26.958734,-44.376095 -61.183438,-46.26729l0,-13.436587l-10.643867,0z" stroke-width="1.5" fill="#d32802"/>
 </g>
</svg>